<?xml version="1.0" encoding="utf-8"?>
<svg xmlns="http://www.w3.org/2000/svg" viewBox="-59.864 33.8142 620.0537 465.2068" width="284.054px" height="134.207px">
  <g transform="matrix(0.8798570036888121, 0, 0, 0.8798570036888121, 36.83615493774403, -10.719829559326229)" id="object-0" style="">
    <path d="M 224.421 50.757 C 225.344 50.757 225.344 50.757 226.281 50.757 C 228.312 50.74 230.343 50.74 232.372 50.74 C 233.069 50.721 233.765 50.721 234.484 50.721 C 237.797 50.721 241.11 50.705 244.422 50.705 C 248.22 50.687 252.017 50.687 255.813 50.652 C 259.121 50.636 262.431 50.636 265.741 50.636 C 267.138 50.636 268.533 50.618 269.929 50.618 C 289.072 50.479 305.264 55.307 319.186 69.043 C 321.919 71.81 324.28 74.665 326.312 78.003 C 326.855 78.885 326.855 78.885 327.406 79.785 C 330.762 85.356 333.062 91.047 334.589 97.379 C 334.722 97.931 334.722 97.931 334.857 98.486 C 336.24 104.593 336.158 110.751 336.147 116.98 C 336.147 117.948 336.147 118.934 336.15 119.92 C 336.15 122.618 336.147 125.309 336.145 128 C 336.143 130.907 336.143 133.814 336.145 136.721 C 336.145 141.754 336.143 146.787 336.139 151.822 C 336.136 159.1 336.134 166.376 336.132 173.654 C 336.132 185.461 336.13 197.269 336.124 209.076 C 336.119 220.546 336.116 232.013 336.111 243.482 C 336.111 244.543 336.111 244.543 336.111 245.627 C 336.111 249.173 336.11 252.721 336.11 256.268 C 336.105 285.693 336.095 315.116 336.082 344.538 C 324.618 344.538 313.151 344.538 301.339 344.538 C 301.339 299.395 301.339 254.252 301.339 207.741 C 267.841 207.741 234.342 207.741 199.828 207.741 C 199.828 234.253 199.828 260.765 199.828 288.081 C 188.363 288.081 176.9 288.081 165.088 288.081 C 165.052 265.159 165.019 242.238 165.004 219.315 C 165.001 216.605 164.999 213.894 164.998 211.185 C 164.998 210.646 164.998 210.105 164.996 209.549 C 164.988 200.83 164.977 192.11 164.961 183.39 C 164.946 174.434 164.937 165.478 164.933 156.52 C 164.932 151 164.925 145.481 164.911 139.96 C 164.902 136.167 164.901 132.373 164.902 128.582 C 164.902 126.398 164.902 124.214 164.891 122.03 C 164.81 100.786 164.81 100.786 168.174 91.428 C 168.381 90.839 168.381 90.839 168.594 90.235 C 174.257 74.631 186.19 62.554 201.108 55.582 C 205.561 53.627 210.271 52.383 215.029 51.397 C 215.464 51.31 215.899 51.224 216.345 51.12 C 219.041 50.757 221.705 50.773 224.421 50.757 Z M 207.293 95.718 C 201.747 102.724 199.662 109.833 199.671 118.657 C 199.668 119.228 199.663 119.783 199.661 120.369 C 199.65 122.22 199.648 124.057 199.647 125.903 C 199.643 127.193 199.638 128.481 199.636 129.77 C 199.629 132.463 199.628 135.157 199.628 137.85 C 199.628 141.304 199.611 144.756 199.595 148.211 C 199.582 150.869 199.58 153.528 199.581 156.185 C 199.58 157.46 199.573 158.733 199.567 160.007 C 199.555 161.784 199.558 163.559 199.566 165.335 C 199.558 165.862 199.553 166.391 199.546 166.932 C 199.552 167.416 199.556 167.9 199.56 168.398 C 199.56 168.817 199.558 169.236 199.558 169.669 C 199.956 171.374 200.587 171.979 202.001 173 C 203.412 173.215 204.598 173.298 206.008 173.283 C 206.415 173.289 206.816 173.294 207.235 173.297 C 208.594 173.309 209.949 173.308 211.306 173.304 C 212.28 173.309 213.252 173.317 214.225 173.323 C 216.868 173.342 219.51 173.344 222.153 173.346 C 224.914 173.351 227.675 173.364 230.438 173.38 C 235.072 173.401 239.708 173.418 244.345 173.424 C 250.302 173.435 256.262 173.459 262.219 173.486 C 267.336 173.51 272.449 173.529 277.566 173.546 C 279.213 173.551 280.86 173.559 282.51 173.565 C 285.094 173.575 287.679 173.581 290.263 173.585 C 291.214 173.586 292.165 173.59 293.117 173.593 C 294.409 173.599 295.703 173.6 296.996 173.602 C 297.379 173.604 297.758 173.605 298.151 173.606 C 299.898 173.753 299.898 173.753 301.339 173 C 301.395 172.241 301.414 171.479 301.415 170.718 C 301.419 170.225 301.424 169.734 301.426 169.226 C 301.426 168.682 301.428 168.138 301.428 167.577 C 301.429 167.007 301.434 166.436 301.436 165.848 C 301.444 163.949 301.447 162.048 301.45 160.152 C 301.454 158.832 301.456 157.512 301.46 156.192 C 301.466 153.415 301.469 150.64 301.47 147.863 C 301.475 144.322 301.487 140.779 301.502 137.239 C 301.512 134.506 301.515 131.777 301.516 129.045 C 301.517 127.74 301.521 126.437 301.53 125.133 C 301.587 113.71 301.181 103.659 292.802 94.956 C 292.396 94.56 291.989 94.161 291.569 93.746 C 291.229 93.399 290.889 93.036 290.538 92.672 C 285.217 87.553 278.045 85.442 270.811 85.442 C 270.33 85.442 269.847 85.442 269.352 85.425 C 267.77 85.425 266.189 85.425 264.608 85.425 C 263.498 85.425 262.39 85.408 261.28 85.408 C 258.96 85.408 256.639 85.408 254.318 85.408 C 251.36 85.408 248.402 85.39 245.443 85.373 C 243.154 85.356 240.864 85.356 238.574 85.356 C 237.484 85.356 236.393 85.337 235.307 85.337 C 224.566 85.27 214.645 87.138 207.293 95.718 Z" fill="#66BE74" style="stroke-width: 1;"/>
    <path d="M 107.922 173.383 C 108.966 173.385 110.013 173.387 111.058 173.389 C 113.777 173.397 116.496 173.412 119.214 173.431 C 122.496 173.449 125.776 173.457 129.055 173.467 C 134.009 173.483 138.963 173.514 143.916 173.541 C 143.916 185.007 143.916 196.471 143.916 208.284 C 139.621 208.315 139.621 208.315 135.238 208.345 C 133.414 208.362 131.586 208.378 129.761 208.398 C 126.872 208.427 123.981 208.455 121.089 208.473 C 118.756 208.487 116.423 208.509 114.089 208.535 C 113.202 208.543 112.317 208.55 111.432 208.554 C 101.664 208.595 93.177 210.393 85.866 217.354 C 80.283 223.551 77.62 230.387 77.593 238.627 C 77.591 239.111 77.586 239.591 77.582 240.087 C 77.571 241.677 77.566 243.268 77.56 244.859 C 77.557 245.402 77.555 245.948 77.554 246.512 C 77.541 249.402 77.534 252.292 77.53 255.183 C 77.522 258.155 77.504 261.126 77.482 264.096 C 77.469 266.393 77.464 268.689 77.462 270.986 C 77.461 272.081 77.454 273.174 77.443 274.269 C 77.355 284.3 78.77 292.729 85.866 300.431 C 94.005 308.07 103.483 309.331 114.21 309.339 C 115.273 309.341 115.273 309.341 116.359 309.346 C 118.315 309.355 120.271 309.358 122.226 309.361 C 124.342 309.365 126.456 309.373 128.569 309.381 C 132.228 309.392 135.888 309.401 139.546 309.41 C 144.835 309.422 150.125 309.437 155.415 309.454 C 163.999 309.478 172.581 309.503 181.166 309.525 C 189.5 309.547 197.838 309.569 206.172 309.593 C 206.685 309.594 207.199 309.597 207.731 309.597 C 210.31 309.605 212.889 309.613 215.468 309.62 C 236.854 309.681 258.242 309.739 279.627 309.796 C 279.627 321.082 279.627 332.367 279.627 343.995 C 256.211 344.042 232.796 344.083 209.381 344.106 C 206.613 344.107 203.844 344.111 201.076 344.114 C 200.249 344.114 200.249 344.114 199.405 344.117 C 190.498 344.124 181.591 344.142 172.684 344.161 C 163.533 344.182 154.385 344.194 145.239 344.199 C 139.598 344.2 133.958 344.211 128.32 344.229 C 124.443 344.24 120.571 344.244 116.698 344.24 C 114.465 344.238 112.236 344.243 110.006 344.253 C 90.366 344.351 73.91 340.344 59.4 326.487 C 52.147 318.98 46.615 309.625 44.033 299.481 C 43.897 298.989 43.765 298.497 43.625 297.991 C 41.952 290.965 42.168 283.902 42.189 276.717 C 42.187 275.302 42.184 273.885 42.183 272.469 C 42.18 269.513 42.184 266.558 42.192 263.603 C 42.2 260.208 42.198 256.816 42.189 253.422 C 42.182 250.129 42.182 246.832 42.187 243.538 C 42.187 242.149 42.187 240.763 42.183 239.373 C 42.163 230.168 42.396 221.522 45.762 212.83 C 45.927 212.402 46.089 211.97 46.256 211.527 C 48.719 205.256 52.104 199.813 56.517 194.713 C 56.868 194.281 57.213 193.848 57.573 193.402 C 70.191 178.317 89.034 173.218 107.922 173.383 Z" fill="#2E90B7" style="stroke-width: 1;"/>
    <path d="M 355.624 173.541 C 367.063 173.498 367.063 173.498 371.988 173.489 C 375.332 173.483 378.675 173.474 382.019 173.46 C 384.718 173.448 387.418 173.44 390.117 173.439 C 391.141 173.438 392.164 173.433 393.188 173.427 C 406.347 173.353 417.862 175.197 429.451 181.683 C 430.264 182.138 430.264 182.138 431.093 182.598 C 435.191 185.047 438.519 188.163 441.935 191.455 C 442.329 191.806 442.718 192.157 443.123 192.519 C 452.573 201.247 458.594 215.68 459.409 228.341 C 459.452 229.987 459.463 231.628 459.457 233.271 C 459.457 233.889 459.463 234.506 459.463 235.142 C 459.475 237.161 459.475 239.182 459.469 241.202 C 459.475 242.619 459.475 244.038 459.479 245.457 C 459.484 248.422 459.479 251.388 459.479 254.354 C 459.475 257.761 459.484 261.164 459.495 264.569 C 459.505 267.873 459.505 271.174 459.505 274.477 C 459.505 275.872 459.505 277.264 459.512 278.657 C 459.576 297.597 455.043 313.474 441.529 327.268 C 427.753 340.896 410.72 344.643 391.992 344.59 C 390.938 344.588 389.888 344.588 388.837 344.588 C 386.088 344.586 383.337 344.579 380.586 344.573 C 377.277 344.567 373.968 344.566 370.66 344.563 C 365.648 344.557 360.637 344.546 355.624 344.538 C 355.624 333.073 355.624 321.607 355.624 309.796 C 359.959 309.765 359.959 309.765 364.382 309.734 C 366.229 309.718 368.073 309.701 369.918 309.681 C 372.838 309.652 375.76 309.625 378.681 309.607 C 381.039 309.593 383.398 309.57 385.755 309.543 C 386.648 309.533 387.543 309.529 388.437 309.525 C 398.581 309.483 408.269 307.966 415.879 300.568 C 421.227 294.359 424.19 287.45 424.18 279.268 C 424.183 278.784 424.188 278.303 424.192 277.807 C 424.203 276.226 424.204 274.642 424.206 273.062 C 424.209 271.953 424.212 270.845 424.217 269.735 C 424.223 267.415 424.224 265.093 424.224 262.773 C 424.223 259.813 424.238 256.857 424.258 253.899 C 424.27 251.609 424.272 249.317 424.272 247.03 C 424.273 245.94 424.277 244.85 424.285 243.76 C 424.351 234.533 423.319 225.551 416.777 218.342 C 408.018 210.245 399.212 208.681 387.75 208.603 C 386.82 208.592 385.891 208.582 384.961 208.569 C 382.533 208.542 380.105 208.522 377.673 208.5 C 374.75 208.474 371.826 208.441 368.903 208.411 C 364.477 208.362 360.051 208.323 355.624 208.284 C 355.624 196.819 355.624 185.354 355.624 173.541 Z" fill="#74C9BD" style="stroke-width: 1;"/>
    <path d="M 165.088 364.623 C 176.551 364.623 188.016 364.623 199.828 364.623 C 199.86 369.614 199.86 369.614 199.89 374.705 C 199.909 376.827 199.924 378.945 199.942 381.066 C 199.971 384.424 200 387.781 200.016 391.139 C 200.031 393.851 200.053 396.561 200.081 399.269 C 200.09 400.299 200.095 401.329 200.101 402.355 C 200.139 413.236 201.704 422.47 209.64 430.469 C 215.787 436.139 222.886 438.525 231.13 438.537 C 231.59 438.54 232.052 438.541 232.528 438.545 C 234.046 438.552 235.567 438.555 237.086 438.559 C 237.606 438.56 238.13 438.562 238.667 438.565 C 241.43 438.571 244.194 438.576 246.957 438.58 C 249.797 438.581 252.636 438.595 255.478 438.61 C 257.673 438.621 259.87 438.624 262.067 438.624 C 263.113 438.627 264.158 438.63 265.205 438.636 C 275.544 438.705 284.259 437.265 292.06 429.933 C 300.269 421.799 300.955 411.432 301.021 400.565 C 301.031 399.526 301.042 398.486 301.055 397.449 C 301.082 394.73 301.105 392.012 301.123 389.294 C 301.148 386.022 301.182 382.753 301.214 379.483 C 301.262 374.528 301.299 369.575 301.339 364.623 C 312.806 364.623 324.27 364.623 336.082 364.623 C 336.125 375.518 336.125 375.518 336.136 380.214 C 336.141 383.401 336.15 386.586 336.164 389.772 C 336.175 392.346 336.182 394.919 336.186 397.491 C 336.187 398.468 336.192 399.441 336.196 400.415 C 336.305 419.061 331.536 435.18 318.575 448.948 C 306.063 461.035 290.176 466.764 272.928 466.755 C 272.398 466.758 271.865 466.759 271.317 466.76 C 269.573 466.765 267.83 466.768 266.084 466.768 C 264.86 466.77 263.636 466.771 262.41 466.774 C 259.847 466.776 257.283 466.778 254.719 466.778 C 251.458 466.778 248.195 466.785 244.932 466.794 C 242.401 466.8 239.871 466.801 237.339 466.8 C 236.14 466.801 234.938 466.804 233.736 466.809 C 214.182 466.871 196.817 462.719 182.457 448.764 C 175.394 441.496 170.355 432.726 167.393 423.046 C 167.285 422.701 167.178 422.355 167.066 422.002 C 164.938 414.621 164.936 407.058 164.981 399.452 C 164.981 398.439 164.984 397.43 164.986 396.419 C 164.991 393.788 165.001 391.155 165.013 388.524 C 165.026 385.351 165.03 382.178 165.037 379.005 C 165.048 374.211 165.068 369.417 165.088 364.623 Z" fill="#6AC5AC" style="stroke-width: 1;"/>
  </g>
  <text style="fill: rgb(51, 51, 51); font-family: Arial, sans-serif; font-size: 66px; font-weight: 700; white-space: pre;" x="-59.864" y="485.021" transform="matrix(0.9999999999999999, 0, 0, 0.9999999999999999, -1.1368683772161603e-13, -5.684341886080802e-14)">RELOJ CHECADOR</text>
</svg>