<svg xmlns="http://www.w3.org/2000/svg" viewBox="0 0 284.5 134.5" xmlns:v="https://vecta.io/nano"><g fill="#00a2bf"><path d="M173.3 1.7h-59.2c-7 0-12.7 5.7-12.7 12.7 0 1.7 1.3 3.3 2.4 4.5l35.4 29.2c1.9 1.6 4.7 1.5 6.6-.2l9.8-9.1c2.9-2.7 2.7-7.3-.4-9.7-2.6-2-6.2-1.8-8.5.6a5.5 5.5 0 0 1-7.7.3l-14.9-13.2h38.6c4.5 0 8.2 3.7 8.2 8.2v37.9c0 4.5-3.7 8.2-8.2 8.2h-37.9c-4.5 0-8.2-3.7-8.2-8.2s-1.3-2.9-2.9-2.9h-9.4c-1.6 0-2.9 1.3-2.9 2.9v10.6c0 7 5.7 12.7 12.7 12.7h59.2c7 0 12.7-5.7 12.7-12.7V14.4c0-7-5.7-12.7-12.7-12.7"/><path d="M124.1 16.9s-19.8-15.1-9.9-15.2h16.3v15.1h-6.3zm38.6 54.2S186 73.8 186 57.8v-9.3h-15.1V63s.2 7.4-8.1 8.2z"/></g><path d="M18.8 113.2h7c1.5 0 2.7.2 3.8.7s1.9 1.1 2.4 2 .8 1.9.8 3.2-.2 1.9-.5 2.6-.8 1.3-1.5 1.8-1.4.9-2.2 1.2l-1.1.6h-6.2v-2.9h4.6c.7 0 1.4-.1 1.9-.4s.9-.6 1.1-1.1.4-1 .4-1.6-.1-1.2-.4-1.7-.6-.8-1.1-1.1-1.1-.4-1.9-.4h-3.3v16.3H19v-19.2Zm10.9 19.1-4.4-8.6h3.8l4.5 8.4v.2zM41.6 113.2v19.2H38v-19.2zm9.1 0v2.9H40.5v-2.9zm-1.3 7.9v2.8h-8.9v-2.8zm1.3 8.4v2.8H40.5v-2.8zM58.8 113.2v19.2h-3.6v-19.2zm8.6 16.3v2.8h-9.7v-2.8zM86.5 122.3v1q0 2.25-.6 3.9c-.6 1.65-.9 2.1-1.6 2.9s-1.6 1.4-2.5 1.9-2.1.6-3.3.6-2.3-.2-3.3-.6-1.8-1.1-2.6-1.9-1.3-1.8-1.7-2.9-.6-2.5-.6-3.9v-1q0-2.25.6-3.9c.6-1.65.9-2.1 1.7-2.9s1.6-1.4 2.6-1.9q1.5-.6 3.3-.6c1.8 0 2.3.2 3.3.6s1.8 1.1 2.6 1.9 1.3 1.8 1.7 2.9.6 2.5.6 3.9Zm-3.7 1v-1c0-1 0-2-.3-2.8-.2-.8-.5-1.5-.9-2s-.8-1-1.4-1.2c-.6-.3-1.2-.4-1.9-.4s-1.3.1-1.9.4c-.5.3-1 .7-1.4 1.2s-.7 1.2-.9 2-.3 1.7-.3 2.8v1c0 1 0 2 .3 2.8.2.8.5 1.5.9 2s.8 1 1.4 1.2 1.2.4 1.9.4 1.3-.1 1.9-.4 1-.7 1.4-1.2.7-1.2.9-2 .3-1.7.3-2.8M99.4 126.5v-13.4h3.6v13.4c0 1.3-.3 2.4-.8 3.3-.6.9-1.3 1.6-2.3 2.1s-2 .7-3.2.7-2.3-.2-3.3-.6-1.7-1.1-2.2-1.9c-.5-.9-.8-2-.8-3.3H94c0 .7.1 1.3.3 1.7s.5.8.9.9c.4.2.9.3 1.4.3s1-.1 1.4-.4c.4-.2.7-.6 1-1.1s.3-1.1.3-1.8ZM128.5 126h3.6c0 1.3-.5 2.4-1.1 3.4s-1.5 1.8-2.6 2.3c-1.1.6-2.4.8-4 .8s-2.3-.2-3.2-.6c-1-.4-1.8-1-2.5-1.8s-1.2-1.8-1.6-2.9-.5-2.4-.5-3.8v-1.5c0-1.4.2-2.7.6-3.8s.9-2.1 1.6-2.9 1.5-1.4 2.5-1.8q1.5-.6 3.3-.6c1.8 0 2.9.3 4 .9s1.9 1.4 2.5 2.4 1 2.2 1.1 3.5h-3.6c0-.8-.2-1.5-.5-2.1s-.7-1-1.2-1.3-1.3-.4-2.2-.4-1.3.1-1.9.4c-.5.3-1 .7-1.3 1.2s-.6 1.2-.8 2q-.3 1.2-.3 2.7v1.5c0 1 0 1.9.2 2.6s.4 1.4.7 2 .8.9 1.3 1.2 1.2.4 1.9.4 1.6-.1 2.2-.4 1-.7 1.3-1.2.5-1.2.6-2ZM140.6 113.2v19.2H137v-19.2zm9.1 7.9v2.8h-10.1v-2.8zm2.7-7.9v19.2h-3.6v-19.2zM161.7 113.2v19.2h-3.6v-19.2zm9.1 0v2.9h-10.2v-2.9zm-1.3 7.9v2.8h-8.9v-2.8zm1.3 8.4v2.8h-10.2v-2.8zM186.5 126h3.6c0 1.3-.5 2.4-1.1 3.4s-1.5 1.8-2.6 2.3-2.4.8-4 .8-2.3-.2-3.2-.6c-1-.4-1.8-1-2.5-1.8s-1.2-1.8-1.6-2.9-.5-2.4-.5-3.8v-1.5c0-1.4.2-2.7.6-3.8s.9-2.1 1.6-2.9 1.5-1.4 2.5-1.8q1.5-.6 3.3-.6c1.8 0 2.9.3 4 .9s1.9 1.4 2.5 2.4 1 2.2 1.1 3.5h-3.6c0-.8-.2-1.5-.5-2.1s-.7-1-1.2-1.3-1.3-.4-2.2-.4-1.3.1-1.9.4c-.5.3-1 .7-1.3 1.2s-.6 1.2-.8 2q-.3 1.2-.3 2.7v1.5c0 1 0 1.9.2 2.6s.4 1.4.7 2 .8.9 1.3 1.2 1.2.4 1.9.4 1.6-.1 2.2-.4 1-.7 1.3-1.2.5-1.2.6-2ZM202.6 116.1l-5.5 16.3h-3.8l7.2-19.2h2.5l-.3 2.9Zm4.3 9.1v2.9h-10.3v-2.9zm.3 7.1-5.5-16.3-.3-2.9h2.5l7.2 19.2h-3.8ZM218.6 113.2v19.2H215v-19.2zm2.1 19.1h-4.1v-2.8h4.1c1.1 0 2.1-.2 2.8-.7.8-.5 1.3-1.2 1.7-2.1s.6-2.1.6-3.4v-1q0-1.5-.3-2.7c-.3-1.2-.5-1.4-1-2-.4-.5-1-.9-1.6-1.2s-1.3-.4-2.1-.4h-4.3v-2.9h4.3c1.3 0 2.5.2 3.5.6 1.1.4 2 1 2.8 1.9.8.8 1.4 1.8 1.8 2.9s.6 2.4.6 3.7v1c0 1.4-.2 2.6-.6 3.7s-1 2.1-1.8 2.9-1.7 1.4-2.8 1.8q-1.65.6-3.6.6ZM250.1 122.3v1q0 2.25-.6 3.9c-.6 1.65-.9 2.1-1.6 2.9s-1.6 1.4-2.5 1.9-2.1.6-3.3.6-2.3-.2-3.3-.6-1.8-1.1-2.6-1.9c-.7-.8-1.3-1.8-1.7-2.9s-.6-2.5-.6-3.9v-1q0-2.25.6-3.9c.6-1.65.9-2.1 1.7-2.9s1.6-1.4 2.6-1.9q1.5-.6 3.3-.6c1.8 0 2.3.2 3.3.6s1.8 1.1 2.6 1.9c.7.8 1.3 1.8 1.7 2.9q.6 1.8.6 3.9Zm-3.7 1v-1c0-1 0-2-.3-2.8-.2-.8-.5-1.5-.9-2s-.8-1-1.4-1.2-1.2-.4-1.9-.4-1.3.1-1.9.4c-.5.3-1 .7-1.4 1.2s-.7 1.2-.9 2-.3 1.7-.3 2.8v1c0 1 0 2 .3 2.8.2.8.5 1.5.9 2s.8 1 1.4 1.2c.5.3 1.2.4 1.9.4s1.3-.1 1.9-.4c.5-.3 1-.7 1.4-1.2s.7-1.2.9-2 .3-1.7.3-2.8M255.2 113.2h7c1.5 0 2.7.2 3.8.7 1 .4 1.8 1.1 2.4 2s.8 1.9.8 3.2-.2 1.9-.5 2.6-.8 1.3-1.5 1.8c-.6.5-1.4.9-2.2 1.2l-1.1.6h-6.2v-2.9h4.6c.7 0 1.4-.1 1.9-.4s.9-.6 1.1-1.1.4-1 .4-1.6-.1-1.2-.4-1.7c-.2-.5-.6-.8-1.1-1.1s-1.1-.4-1.9-.4H259v16.3h-3.6v-19.2Zm10.8 19.1-4.4-8.6h3.8l4.5 8.4v.2z"/></svg>