<svg xmlns="http://www.w3.org/2000/svg" xmlns:xlink="http://www.w3.org/1999/xlink" xml:space="preserve" id="Layer_1" x="0" y="0" version="1.1" viewBox="0 0 487.9 366.2"><style>.st0{fill:#e1e6fb}.st1{fill:#bac5f4}.st2{fill:#f8f8ff}.st3{fill:#fff}.st4{fill:#f5f5fc}.st5{font-family:&quot;RevaloModernBold&quot;}.st6{font-size:28px}.st8{fill:#4b44be}.st15{opacity:7.000000e-02;enable-background:new}.st22{fill:#efefef}</style><path d="m14.97 97.36 12.658-12.656 11.808 11.808L26.78 109.17zM28.894 112.43 41.55 99.775l11.808 11.808-12.657 12.657zM31.896 82.428l12.658-12.657L56.362 81.58 43.705 94.237zM431.964 298.365l12.657-12.657 11.808 11.808-12.657 12.657zM445.894 313.432l12.657-12.657 11.808 11.809-12.657 12.657zM430.891 328.433l12.657-12.657 11.809 11.808-12.657 12.657z" class="st0"/><path d="M124.8 27.2h122v63h-122z" class="st1"/><path d="M51.8 263.2h46v102h-46z" class="st0"/><path d="M73.8 272.2s-40-65-42-82-4-23-4-23 12-2 16 7 16-2 20 22c0 0 1 12 10 8s0 68 0 68" class="st0"/><path d="M78.8 282.2s-28.6-53-38-74c-7-15.6-13-41-13-41s-12.1 4.4-11 14c1 9-8 12-6 23 2.2 11.9 19.4 14.1 9 25-6.3 6.6-1.6 17.8 3 25 2.9 4.6 17.4 8.8 14 7-7.8-4 42 21 42 21" class="st1"/><ellipse cx="49.8" cy="214.2" class="st1" rx="2" ry="26" transform="rotate(-24.72 49.798 214.177)"/><path d="M87.4 314.7s-60.9-46-68.9-61.1-12.1-20-12.1-20 10.5-6.2 17.5.7 14.2-7.7 26.6 13.2c0 0 1.4 14.7 10.4 11.7 9.2-3.1 26.5 55.5 26.5 55.5" class="st0"/><path d="M95.7 322.2s-45.9-39-62.3-55.1c-12.2-12-27-33.5-27-33.5s-9.6 8.5-5.2 17c4.2 8-3.1 14.1 2.8 23.6 6.3 10.3 23.2 6.1 17.5 20-3.5 8.4 5 17.2 11.9 22.2 4.4 3.2 19.4 1.8 15.6 1.4-8.8-.8 46.7 4.4 46.7 4.4" class="st2"/><ellipse cx="37.9" cy="281.5" class="st0" rx="2" ry="26" transform="rotate(-46.036 37.898 281.5)"/><path d="M404.8 192.3s47.5-77.3 50.6-97.9 5.6-27.8 5.6-27.8-13.2-3-18.1 7.8-17.6-3.1-23.2 25.9c0 0-1.7 14.6-11.5 9.3s-3.4 82.7-3.4 82.7" class="st0"/><path d="M398.8 204.2s34.3-63.2 45.8-88.3c8.5-18.6 16.4-49.3 16.4-49.3s13.2 5.9 11.5 17.5c-1.6 10.9 8.3 15 5.5 28.3-3 14.4-22.2 16.3-11.2 30 6.6 8.3.9 21.8-4.6 30.3-3.5 5.4-19.7 9.9-15.9 7.9 8.8-4.5-47.5 23.6-47.5 23.6" class="st1"/><path d="M432.3 121.7c-7.3 15.6-12.3 28.7-11.2 29.3s7.9-11.5 15.2-27.1 12.3-28.7 11.2-29.4-7.9 11.6-15.2 27.2" class="st1"/><path d="M387.6 243.4s69.8-53.2 79.4-71.3 14.4-23.8 14.4-23.8-11.3-8-19.4.1-15.3-10-30.2 14.9c0 0-2.2 17.8-12.1 13.7-10.1-4.1-32.1 66.4-32.1 66.4" class="st2"/><path d="M378.1 252.2s52.8-45.4 71.8-64.3c14.1-14 31.6-39.5 31.6-39.5s10.2 10.8 4.9 21c-5.1 9.6 2.7 17.3-4.2 28.6-7.5 12.2-26 6.4-20.3 23.6 3.4 10.4-6.4 20.7-14.3 26.5-5 3.7-21.6 1.3-17.3 1 9.5-.8-52.2 3.1-52.2 3.1" class="st0"/><path d="M448.2 199.4c-11.4 12.2-20 22.8-19.2 23.8s10.8-8.1 22.2-20.3 20-22.8 19.2-23.8-10.8 8.1-22.2 20.3" class="st3"/><path d="M105.8 263.2h77v102h-77z" class="st1"/><path d="M273.8 264.2h77v102h-77zM253.8 27.2h50v64h-50z" class="st0"/><path d="M70.8 80.2h349v257h-349z" class="st1"/><path d="M79.8 80.2h340v257h-340z" class="st2"/><path d="M82.8 84.2h333v18h-333z" class="st3"/><path d="M82.8 101.2h333v232h-333z" class="st0"/><g id="Layer_3"><path d="M137.8 110.2h41v46h-41zM183.8 110.2h41v46h-41zM228.8 110.2h41v46h-41z" class="st1"/><path d="M274.8 110.2h41v46h-41zM319.8 110.2h41v46h-41zM365.8 110.2h41v46h-41zM137.8 163.2h41v46h-41zM183.8 163.2h41v46h-41z" class="st3"/><path d="M228.8 163.2h41v46h-41z" class="st2"/><path d="M274.8 163.2h41v46h-41zM319.8 163.2h41v46h-41zM365.8 163.2h41v46h-41zM137.8 214.2h41v46h-41zM183.8 214.2h41v46h-41z" class="st3"/><path d="M228.8 214.2h41v46h-41z" class="st2"/><path d="M274.8 214.2h41v46h-41z" class="st3"/><path d="M319.8 214.2h41v46h-41z" class="st2"/><path d="M365.8 214.2h41v46h-41z" class="st3"/><path d="M138.8 266.2h41v46h-41zM184.8 266.2h41v46h-41z" class="st2"/><path d="M229.8 266.2h41v46h-41zM275.8 266.2h41v46h-41z" class="st3"/><path d="M320.8 266.2h41v46h-41z" class="st1"/><path d="M366.8 266.2h41v46h-41z" class="st3"/><circle cx="92.3" cy="93.7" r="3.5" class="st1"/><circle cx="103.3" cy="93.7" r="3.5" class="st1"/><circle cx="114.3" cy="93.7" r="3.5" class="st1"/><path d="M97.3 162.2h28c2.5 0 4.5 2 4.5 4.5s-2 4.5-4.5 4.5h-28c-2.5 0-4.5-2-4.5-4.5 0-2.4 2-4.5 4.5-4.5M97.3 214.2h28c2.5 0 4.5 2 4.5 4.5s-2 4.5-4.5 4.5h-28c-2.5 0-4.5-2-4.5-4.5 0-2.4 2-4.5 4.5-4.5M97.3 266.2h28c2.5 0 4.5 2 4.5 4.5s-2 4.5-4.5 4.5h-28c-2.5 0-4.5-2-4.5-4.5 0-2.4 2-4.5 4.5-4.5" class="st3"/><path d="M145.3 166.2h16c1.9 0 3.5 1.6 3.5 3.5s-1.6 3.5-3.5 3.5h-16c-1.9 0-3.5-1.6-3.5-3.5s1.6-3.5 3.5-3.5M144.3 179.2h7c1.4 0 2.5 1.1 2.5 2.5s-1.1 2.5-2.5 2.5h-7c-1.4 0-2.5-1.1-2.5-2.5 0-1.3 1.1-2.5 2.5-2.5M191.8 166.2h16c1.7 0 3 1.3 3 3s-1.3 3-3 3h-16c-1.7 0-3-1.3-3-3 0-1.6 1.3-3 3-3" class="st1"/><path d="M327.8 273.2h16c1.7 0 3 1.3 3 3s-1.3 3-3 3h-16c-1.7 0-3-1.3-3-3 0-1.6 1.3-3 3-3" class="st3"/><path d="M372.8 219.2h16c1.7 0 3 1.3 3 3s-1.3 3-3 3h-16c-1.7 0-3-1.3-3-3 0-1.6 1.3-3 3-3M371.8 167.2h16c1.7 0 3 1.3 3 3s-1.3 3-3 3h-16c-1.7 0-3-1.3-3-3 0-1.6 1.3-3 3-3M326.8 167.2h16c1.7 0 3 1.3 3 3s-1.3 3-3 3h-16c-1.7 0-3-1.3-3-3 0-1.6 1.3-3 3-3" class="st4"/><circle cx="192.8" cy="180.2" r="4" class="st1"/><circle cx="283.8" cy="173.2" r="4" class="st1"/><circle cx="297.8" cy="173.2" r="4" class="st1"/><circle cx="297.8" cy="223.2" r="4" class="st1"/><circle cx="283.8" cy="223.2" r="4" class="st1"/><circle cx="296.8" cy="274.2" r="4" class="st1"/><circle cx="282.8" cy="274.2" r="4" class="st1"/><circle cx="160.8" cy="275.2" r="4" class="st1"/><circle cx="146.8" cy="275.2" r="4" class="st1"/><circle cx="283.8" cy="119.2" r="4" class="st1"/><circle cx="236.8" cy="119.2" r="4" class="st3"/><circle cx="250.8" cy="119.2" r="4" class="st3"/><circle cx="191.8" cy="119.2" r="4" class="st3"/><circle cx="205.8" cy="119.2" r="4" class="st3"/><circle cx="146.8" cy="119.2" r="4" class="st3"/><circle cx="160.8" cy="119.2" r="4" class="st3"/><text class="st1 st5 st6" transform="translate(298.27 151.936)">4</text><text class="st3 st5 st6" transform="translate(209.27 151.936)">2</text><text class="st1 st5 st6" transform="translate(162.61 203.736)">7</text><text class="st1 st5 st6" transform="translate(289.6 203.796)">10</text><text class="st1 st5 st6" transform="translate(247.25 255.566)">15</text><text class="st1 st5 st6" transform="translate(382.25 257.566)">18</text><text class="st1 st5 st6" transform="translate(195 304.956)">2</text><text class="st1 st5 st6" transform="translate(206.73 304.956)">0</text></g><g id="man"><path d="m381.3 98.9-76 11.2c-2.9.4-5 3.3-4.6 6.5l11.2 89c.4 3.2 3.1 5.4 6 4.9l76-11.2c2.9-.4 5-3.3 4.6-6.5l-11.2-89c-.4-3.1-3.1-5.3-6-4.9" class="st1"/><path d="M346.5 170z" style="fill:none;stroke:#c1272d;stroke-miterlimit:10"/><path d="M417.4 341.9c2.3.5 10.1-2.2 11.4-3.5.4-.4.8-1.7 1.1-2.2.3-1.7 1.1-.8 1.8-1 2.3-.5 8.4-2.2 11.2-.6.5 1.3.6 2.5.9 3.3.8 3.3 1.2 6.6 1.5 9.9.2 2.1-1.1 3.9-3 4.1-.6 0-1.3 0-1.9-.1-4.9-1.3-14.7-1.6-18.5-3.3-6.4-1.7-10-5.3-4.5-6.6M341.7 345.8c2.2.6 10.3-1.5 11.6-2.7.5-.4.9-1.6 1.3-2.1.4-1.6 1.1-.8 1.9-.9 2.3-.4 8.5-1.7 11.3.1.5 1.3.4 2.6.7 3.3.5 3.3.9 6.7 1 10 .1 2.1-1.4 3.8-3.3 3.9-.6 0-1.3 0-1.9-.2-4.8-1.6-14.6-2.6-18.3-4.5-6.4-2.1-9.8-6-4.3-6.9" class="st8"/><linearGradient id="SVGID_1_" x1="285.89" x2="375.207" y1="835.831" y2="835.831" gradientTransform="matrix(-.9889 0 0 1 725.97 -562.49)" gradientUnits="userSpaceOnUse"><stop offset="0" style="stop-color:#4f68ca"/><stop offset="1" style="stop-color:#5aceed"/></linearGradient><path d="M443.3 334.8c-3.8.6-13.1.7-13.1.7s-.6-4.9-3.4-14.3c-2.9-9.5-17.3-39.4-17.3-39.4-3-4.9-6.1-15-6.1-15l-4.3-38.7s-22.9 38.6-22.5 47.4c.3 8.8-5.3 43-5.3 43-.6 5.1-3.4 22.1-3.4 22.1-4.2-.6-8.5-.7-12.8-.4.6-7 2.9-35.9 2.9-35.9s1.5-22.4 1.8-36 9.3-42.4 15.3-55.5c.8-2.2 1.5-4.5 2-6.8l53.4 7.3c-1.2 3.7-2.2 7.4-2.9 11.2-3.1 17.1-5.3 45.8-5.3 45.8 8.4 10.2 13.6 29.5 13.6 29.5 3.3 11.6 7.4 35 7.4 35" style="fill:url(#SVGID_1_)"/><linearGradient id="SVGID_2_" x1="13.316" x2="43.023" y1="788.718" y2="788.718" gradientTransform="matrix(-.9889 0 0 1 423.852 -684)" gradientUnits="userSpaceOnUse"><stop offset="0" style="stop-color:#f87b58"/><stop offset="0" style="stop-color:#f87b58"/><stop offset=".41" style="stop-color:#f89453"/><stop offset=".94" style="stop-color:#f8c548"/></linearGradient><path d="M383.9 97.9c8.2-1.7 16.7 1.5 16.7 1.5l1.4.5 8.8 12.2-8.1-2.3c-2.2-.8-6.4-2.1-8.4-1.9-1.5-.1-4.9.7-6.5-.8-1.2-.6-1.5-1.7-4-4.4-1.8-2.2-1.3-2.8-2-3.1-1-.5-.2-1.5 2.1-1.7" style="fill:url(#SVGID_2_)"/><linearGradient id="SVGID_3_" x1="52.879" x2="69.865" y1="887.511" y2="887.511" gradientTransform="matrix(-.9889 0 0 1 423.852 -684)" gradientUnits="userSpaceOnUse"><stop offset="0" style="stop-color:#f87b58"/><stop offset="0" style="stop-color:#f87b58"/><stop offset=".41" style="stop-color:#f89453"/><stop offset=".94" style="stop-color:#f8c548"/></linearGradient><path d="M354.8 205.8c.1-.5 1.7-.2 1.9-.6 1.7-2.6 3.8-6 8.1-7.6 1.2-.4 2.5-.7 3.8-.9l2.9 5.5c-.4 1-.8 1.9-1.4 2.7-1.8 2.6-5.5 6.1-12.3 5.1-1.5-.1-3.2-2.4-3-4.2" style="fill:url(#SVGID_3_)"/><linearGradient id="SVGID_4_" x1="-17.037" x2="10.901" y1="786.63" y2="786.63" gradientTransform="matrix(-.9889 0 0 1 423.852 -684)" gradientUnits="userSpaceOnUse"><stop offset="0" style="stop-color:#f87b58"/><stop offset="0" style="stop-color:#f87b58"/><stop offset=".41" style="stop-color:#f89453"/><stop offset=".94" style="stop-color:#f8c548"/></linearGradient><path d="M415.6 83.5c1 0 21.5 17.1 21.7 19 0 1 .1 5.4.8 8.2.7 2.7 2.7 6.5 2.7 6.5s-1.8 3.6-6.4 4.3c-4.4.7-10.3-.9-10.3-.9s1.4-9.5-.3-10.5c-1.5-.9-1.9 0-6.9-4.5s-3.4-16.2-3.3-16.9c0-.8 1-5.2 2-5.2" style="fill:url(#SVGID_4_)"/><linearGradient id="SVGID_5_" x1="-35.386" x2="58.914" y1="-654.132" y2="-654.132" gradientTransform="matrix(-.9889 0 0 -1 423.852 -497.508)" gradientUnits="userSpaceOnUse"><stop offset="0" style="stop-color:#e1a1ed"/><stop offset="1" style="stop-color:#7658f4"/></linearGradient><path d="M392.2 163.6c6.7-6.6 10.9-27 13-32.1s5.5-6.6 6.9-7.1c.7-.3 4.3-1.4 7.1-2.2l-19.9-13.5c-2.7-5.5 2.6-8.8 2.6-8.8l22.6 12.2v8.3l7.3-1.3 8.8-1.9c2.7-.7 5.4-1.1 8.2-1.4 1.1-.1 2.3 0 3.4.5l.6.2c1.4.5 2.5 1.6 3.2 3 1.4 3.3 2.4 6.9 2.8 10.6.8 5.9-3.4 19.2-7.6 28.9-1.9 4.1-9.1 25.3-10.9 30.6-8.8 22.2-9.5 23.9-9.5 23.9-27.1-.3-53.6-6.8-53.6-6.8-1.2-2.4 3.2-9.5 3.2-9.5l-8.2 7.4c-3.6 1.2-6.5-7.4-6.5-7.4s20.8-28.1 26.5-33.6" style="fill:url(#SVGID_5_)"/><linearGradient id="SVGID_6_" x1="786.711" x2="813.67" y1="1564.828" y2="1552.999" gradientTransform="matrix(-.9889 0 0 1 1222.114 -1468.27)" gradientUnits="userSpaceOnUse"><stop offset="0" style="stop-color:#4b44be"/><stop offset="1" style="stop-color:#5bd3ef"/></linearGradient><path d="M441.1 84.5c-.4-.9-1.4-2.8-2-3.5-1-1.1-2-2.2-3.1-3.2-1-.7-3.5-2.1-4.5-2.6-3.4-1.1-8 0-11.4.2-3.1-.2-5.3 3.9-6.5 6.6s1.1 2.4.9 4.5c0 .4 1 1 1.9 1.5s3.4 4.9 4.3 6.9c.9-5 4 3.9 3.4 5 1.2.9 2.7 4.5 5 5.6 1.5-.7 4.4-3.5 8.3-2.7.3-.8 4.1-3.8 4.5-9 .1-1.5.4-7-.8-9.3" style="fill:url(#SVGID_6_)"/><path d="M429.4 107.1s-3.4 3.3-5.5 3.3l.5 2.8-.1 4.1s1.3-2.3 3-4.6c1-1.7 1.8-3.6 2.1-5.6M416.9 148.2s-4.3 14.1-17.7 28.8-16.6 17.7-16.6 17.7-2.7 3.7-1.9 6.2c.9 2.5 6.7-5.8 19.8-12.3 7.5-3.7 10-10 13.5-18.9 4.3-11.2 5.3-13.6 5.9-17.7 1.5-10.5-3-3.8-3-3.8M399.1 228.2s6.3 14.8 8.1 22c1.9 7.5 1.9 18.3 7.4 23.6 6.3 6 13.7 26.1 15.5 30.3 2.4 6.1 7.4 39.6 6 41.9s-7.1-1.1-7.1-1.1 2.1-8.5.3-16.2-10.1-28.3-15.3-38.5c-4.7-9.1-9.5-19.7-10.6-25.8-1.1-6.2-4.3-36.2-4.3-36.2" class="st15"/></g><g id="woman_check_phone"><path d="m83.9 335.5-7 1.6s-1.7 5.5-2.5 8.5c-.1.2-.2.7-.3 1-.1.5-.2 1-.2 1.5.2 2.6 1.2 4.9 3.5 6.1 2.6 1.3 4.6 2.5 7.4 0 2.7-2.5 3.2-4.1 2.1-8.5s-3-10.2-3-10.2M124.4 344.6c-4.7-1.5-6.7-7.3-6.7-7.3l-9.5-.5s-.2 5.9-.5 9.1c-.3 4.3.5 6.2 3.3 5.9 3.8-.3 19.4 1.1 21.8-.5 3.3-1.8-4-5.3-8.4-6.7" class="st8"/><linearGradient id="SVGID_7_" x1="64.367" x2="122.549" y1="-355.448" y2="-355.448" gradientTransform="matrix(1 0 0 -1 0 -85.508)" gradientUnits="userSpaceOnUse"><stop offset="0" style="stop-color:#4f68ca"/><stop offset="1" style="stop-color:#5aceed"/></linearGradient><path d="M69.3 202s-3.5 4.9-4.7 18c-1.1 13.1 1.4 38 2.5 42.8 1.2 4.8 5.8 49.8 7 53.1s2.7 21.2 2.7 21.2l7.5.2s2.2-23.4 2.2-29.6 3.1-64.7 2.9-69 .8-2.9.8-2.9 6.6 20.9 8.5 24.4c2 3.5 5.4 10.3 5.4 10.3s.8 21.9 1.7 34.6 2 32.7 2 32.7l10.1-.2s2.3-33.4 2.3-40.5c0-7 2.1-23.9 2.1-25.9s-6.6-36.1-6.6-36.1l-4.6-33.3z" style="fill:url(#SVGID_7_)"/><linearGradient id="SVGID_8_" x1="71.415" x2="132.02" y1="426.598" y2="426.598" gradientTransform="translate(0 -272)" gradientUnits="userSpaceOnUse"><stop offset="0" style="stop-color:#f87b58"/><stop offset=".5" style="stop-color:#f8c548"/><stop offset="1" style="stop-color:#f89c51"/></linearGradient><path d="M81.2 91.7C77.8 93 73.4 110 73.4 110l-.1-.1-1.9 1.9.8 3.6 3.3 56.3 17.2-3.7 15.1-16 9.4 4.4s.7 20.5.8 21.6 1.7 32 1.7 34.1c.1 2.2 9.3 11.9 10.8 10.8 4.5-3.2-3-9-4.8-10.5-1.1-.8-3.3-29.6-3.5-33s5.2-12-4.1-23.4c-6.8-8.3-10.5-29.6-16.2-53.8-3-12.6-4.8-16.3-7.8-16.3-2.6.2-6.3 3.4-12.9 5.8" style="fill:url(#SVGID_8_)"/><linearGradient id="SVGID_9_" x1="53.452" x2="125.669" y1="-258.612" y2="-258.612" gradientTransform="matrix(1 0 0 -1 0 -85.508)" gradientUnits="userSpaceOnUse"><stop offset="0" style="stop-color:#e1a1ed"/><stop offset="1" style="stop-color:#7658f4"/></linearGradient><path d="M78.3 139.7c-.1.2-6.6 3.2-9.4 6.7-2.8 3.4-5.1 8.4-5.1 8.4s-4.1 9.7-7 16.9c-1.5 3.9-6.6 19.7-.5 20.3 5.7.5 18.3-12.9 20.3-15.4l2.2-4.9c.2-.6-3.4-7.2-3.3-7.8.1-1 8.4-5.8 9.6-2.9.4 1 1.5 3.7 1.9 4.5.8 2.1-11.2 6.1-11.2 7.9 0 2.3-1 10.7-2.6 14.8s-4.1 13.9-4.1 13.9l42.2.1s-1.4-18.8-.8-25c0 0 1.8-20.5 2.9-22.5s2.9 25.3 2.6 30.9c-.2 3.9 3.3 27.4 4.3 28.2 1.6 1.3 5.5-1.3 5.5-1.3s-.2-25.8-.3-30c-.2-4.3.1-38.9-5.6-45.2-5.7-6.2-7.2-6.1-11.9-4.4-4.7 1.6-7 3.2-13.4 4.3-3.9.7-8 .2-11.6-1.4 1-3.6-1.1 2.5-.8.8" style="fill:url(#SVGID_9_)"/><linearGradient id="SVGID_10_" x1="63.853" x2="119.279" y1="-208.404" y2="-208.404" gradientTransform="matrix(1 0 0 -1 0 -85.508)" gradientUnits="userSpaceOnUse"><stop offset="0" style="stop-color:#4b44be"/><stop offset="1" style="stop-color:#5bd3ef"/></linearGradient><path d="M84.5 82s-8.4.3-10.8 8.5-2.7 19.7-2.8 21.5c-.1 1.9.9 14.8-.2 18.4-1 3.2-3.6 9-5.3 13.1-.6 1.6-1.1 3.3-1.4 5l-.2 1.4c.4 1.4 2 2.3 3.4 1.8.1-.1.2-.1.3-.1.8-.4 1.6-.8 2.4-1.3 2.5-1.5 5.8-5.6 8.3-6.9 2.7-1.3 5.8-7.5 6.2-7.9s.3-2 .3-3.5c.3-7.7-1.2-14.7-3-18.4s-5.9-10.9-3.1-15.1c2.9-4.2 8.8-7.5 9.1-8.5s.4 4 3.6 5.8 7.6 6.6 7.6 7.7 1.1 4.5-2 10.5c-3 6-5.4 13.6-1.2 19.3s14.7 13.6 15.4 15.4 0 9.8-.3 14.3 8.5-7.7 8.2-13.5c-.3-5.9.7-8.4-5.2-17.3s-9.9-24.4-10-28.1c-.2-3.8-2-14.1-5.6-17.1-3.1-2.5-3.8-5-10.2-5-1-.2-2.3-.1-3.5 0" style="fill:url(#SVGID_10_)"/><g class="st15"><defs><path id="SVGID_11_" d="M64.2 90.4h24.3v264.4H64.2z"/></defs><clipPath id="SVGID_12_"><use xlink:href="#SVGID_11_" style="overflow:visible"/></clipPath><path d="M81.3 160.7q-1.95.75-3.6 1.8l-1.3.6s-13.4 14-12.8 13.3c2.6-3.2 10.6-20.4 13.3-24.3 2.9-4.1 4.4-2.5 7.6 8.5" style="clip-path:url(#SVGID_12_)"/></g><path d="M80.7 337c.1.2.1.3.1.5.1 1.2 0 4.1-1.3 5.9-1.6 2.4 2.2 7.8 2.2 9.1s-1.7 2.5-3 2.2c-1.2-.4-6.3-3.2-4.3-9.4.8-2.5 1.3-4.7 1.7-6 .3-.7.5-1.4.7-2.1.1-.3.1-.6.1-1-.1-.4-.1-.9-.1-1.4-.3-2.4-10.3-76.6-10.7-79.4-.3-2.5-1.8-18.2-1.6-27.4-.1-.8-.1-1.6-.1-2.3 0-.2.1-1.1.1-1.5.1-.8.1-1.7.2-2.5-.2-.7-.1-.7 0-1.8s0-1.7.1-2.4c1-6.2 3.3-13.3 4.4-15.3l.3-1.1s2.5-9.4 3.4-11.2c.7-1.6 2.9-9.9 2.6-11.6-.1-1 3.3-4.7 3.3-4.7l.7-.6c.3-.1.7 0 1 .1.7.3 3.6-2.2 4.1-.6 3.4 10.8 4.8 15.4-1.2 21.9s-.5 12.2-.4 16.8c.3 11.2-5.2 10-5.5 17s1.2 12 1.3 15.7c.3 12 .1 14.4-.5 19.1s-3.9 13.6-.3 31.2 3.1 19.1 2.7 29.1c-.4 9.8 0 13.7 0 13.7" style="opacity:7.000000e-02"/><path d="m75.1 155.6.1-.1c.4-.2 2.9-1.5 4.7-2.2 2-.8 4.3 5.9 4.9 7.2.1.1.1.1-.4.2-1.4.2-2.9.4-4.2.8-2 .5-4.3 2.1-4.4 2.1-.1.1-.7-1.2-1.9-4.2-.3-.7-.8-2.5-.3-2.9z" class="st22"/><path d="M90.3 120.3c1.3.5 2.7.2 3.7-.8 1.7-1.7-.6 4.2-.3 5.5.4 1.2-3.4-4.7-3.4-4.7" class="st15"/><path d="M78.8 171.1s8-5.2 8.1-5c.2.5.9 2.4.9 2.4s.6 1.2.4 1.6-7.8 3.6-7.8 3.6c-.3-.1-.6-.2-.7-.5q-.45-.9-.9-2.1" class="st22"/></g></svg>