<svg xmlns="http://www.w3.org/2000/svg" width="433" height="292" xmlns:v="https://vecta.io/nano"><style><![CDATA[.B{fill:#5987b1}.C{fill:#f9fafc}.D{fill:#e7a5ba}.E{fill:#eacfae}.F{fill:#1a2b45}.G{fill:#419d71}.H{fill:#f7e4e8}.I{fill:#a2c4d8}]]></style><path fill="#536298" d="M348 264.1H72.9c-4.9 0-8.9 3.9-8.9 8.7 0 4.7 4 8.6 8.9 8.6H348c5 0 8.9-3.9 8.9-8.6 0-4.8-3.9-8.7-8.9-8.7"/><path d="M289.7 245.7s-5.2-9-.4-15c4.7-5.9 19.4-12.8 28-13.4 8.7-.6 12.2-1 18.4-2 6.3-.9 16.8 3.2 22.1 4.4s20.4 8.1 20.4 8.1-9.1 2.7-14.4 5.3c-5.3 2.7-10.9 7.2-16.7 9.3-5.8 2.2-12.9 1.5-17.3 4-4.5 2.5-13.6 6.9-19.1 7.7-5.4.8-18.8 2.3-21-8.4" class="G"/><path d="m350.3 236.5-12.7-7.2c14.6-2.8 24.4-2.5 24.4-2.5-8.5-.9-16.6-.6-24.3.5l5.3-8.5-6.9 8.7c-4.4.7-8.6 1.6-12.6 2.6l6.8-10.9-9.1 11.6q-4.8 1.4-9.1 3l4.4-9.7-6.9 10.6c-3.5 1.4-6.8 2.8-9.8 4.2l4.6-12.1-6.7 13.2c-10.3 5.1-16.5 9.7-16.5 9.7l.7 2c5.1-3.3 10.2-6.3 15.2-8.8l15.2 5.6-13.5-6.4q5.2-2.5 10.2-4.5l15.8 4.8-13.7-5.6q5.6-2.1 10.8-3.7l17.9 6.8-15.8-7.4c4.2-1.2 8.1-2.1 11.8-2.9z" class="H"/><path d="M306.7 179.2s-10-2.7-10.8-10.3c-.8-7.5 4.6-22.8 10.4-29.3 5.7-6.5 7.9-9.2 11.7-14.3s14.2-9.6 18.7-12.5c4.6-2.9 20.2-8.6 20.2-8.6s-4.5 8.3-6.4 13.9-2.7 12.8-5.4 18.4c-2.6 5.6-8.1 10.1-9.5 15s-4.7 14.5-8 18.9-11.8 14.8-20.9 8.8" class="G"/><path d="m343.2 130-14.1 3.9c8.4-12.3 15.6-19 15.6-19-6.7 5.3-12.2 11.3-16.9 17.5l-2.2-9.8 1.2 11.1c-2.6 3.5-5 7.1-7.1 10.7l-2.9-12.6 1.8 14.6q-2.5 4.4-4.4 8.6l-3.7-9.9 2.6 12.3c-1.6 3.5-2.9 6.8-4 9.9l-5.3-11.8 4.6 14.1c-3.7 10.8-4.9 18.5-4.9 18.5l1.9.9c1.2-5.9 2.8-11.6 4.6-16.9l14.7-6.8-14.1 4.9q1.9-5.4 4.1-10.3l14.6-7.8-13.7 5.7q2.5-5.4 5.1-10.2l17.4-7.7-16.3 5.8c2.1-3.8 4.2-7.2 6.3-10.3z" class="H"/><path d="M95.9 207.7s3.5-7-.3-11.8c-3.8-4.7-15-10.4-21.5-11s-9.1-.9-13.8-1.7-12.4 2.3-16.3 3.1c-3.9.9-14.8 6.2-14.8 6.2s6.9 2.2 11 4.4c4 2.1 8.4 5.8 12.8 7.5 4.5 1.8 9.7 1.3 13.1 3.4 3.4 2 10.4 5.6 14.5 6.3s14.1 2 15.3-6.4" class="G"/><path d="m50.4 199.7 9.2-5.5c-11-2.4-18.3-2.3-18.3-2.3 6.2-.6 12.3-.3 18.1.7l-4.4-6.8 5.6 7c3.3.5 6.4 1.3 9.5 2.2l-5.6-8.7 7.3 9.2q3.6 1.2 6.9 2.5l-3.7-7.6 5.6 8.4c2.7 1.1 5.2 2.3 7.5 3.5l-3.9-9.7 5.5 10.5c7.9 4.2 12.7 7.9 12.7 7.9l-.4 1.6q-5.85-4.05-11.7-7.2l-11.1 4.2 9.8-4.9q-4-2-7.8-3.6l-11.6 3.6 10-4.3q-4.2-1.7-8.2-3l-13 5.1 11.4-5.6q-4.7-1.5-8.9-2.4z" class="H"/><path d="M111.8 200.2s5.8-5.4 3.7-14c-2-8.7-7.2-13.5-7.2-13.5s-3.1 5.1-2.4 12.5c.6 7.3 5.9 15 5.9 15m-12.7-11.6s4.8-6.9 3.1-14.5-7.6-10.7-7.6-10.7-3.1 5.6-2 12.7c1 7.1 6.5 12.5 6.5 12.5m-12-9.6s4-5 1.8-12.6c-2.1-7.5-8.7-10.9-8.7-10.9s-2.2 4.8-1.1 12.2c1.1 7.5 8 11.3 8 11.3m-15.4-9.1s3.2-6.1 1.5-12.4c-1.7-6.4-8.7-8.4-8.7-8.4s-2.1 7.5.8 13.5 6.4 7.3 6.4 7.3m-10.3-4.4s-1.2-7.3-8.5-11.1c-7.2-3.8-18 2.1-18 2.1s5.2 8.6 14.2 10.2 12.3-1.2 12.3-1.2m8.9 7.2s-4.8-2.8-10.6-2.6c-5.7.2-11.5 7.2-11.5 7.2s11.9 3.3 17.4.8c5.4-2.4 4.7-5.4 4.7-5.4m14 9.4s-3.5-3.6-10.8-3-16.1 7.6-16.1 7.6 16.4 4.8 22 1.9c5.5-2.9 4.9-6.5 4.9-6.5m13.6 10.4s-3.1-3-10.4-2.8c-7.4.2-14 4.4-14 4.4s10.5 6.3 16.9 4.8 7.5-6.4 7.5-6.4m12.2 11.5s-1.6-2.6-8.9-3c-7.2-.5-15 5.8-15 5.8s9 3 16.2 2c7.2-.9 7.7-4.8 7.7-4.8" class="B"/><path d="m53.5 175.8 16.7-3.9c-15.7-9.2-27-12.7-27-12.7 9.9 2.2 19.1 5.8 27.5 10.2l-3.4-12.6 5.2 13.5c4.8 2.6 9.3 5.3 13.5 8.2l-4.3-16.2 6.7 17.9q5 3.6 9.5 7.3l-2-13.6 4.5 15.8c3.6 3.1 6.9 6.1 9.8 9l-1.4-16.8 3.5 19c10.1 10.4 15.7 18.5 15.7 18.5l-1.4 2.2c-4.7-6.1-9.6-11.7-14.5-16.8l-19.1.8 17.4-2.6q-5.1-5.1-10.2-9.5l-19.5-.4 17.4-1.5q-5.7-4.8-11.2-8.8l-22.5 1.4 20.2-3c-4.3-3.1-8.5-5.8-12.4-8.1z" class="I"/><path d="M108.3 227.3s2-6.4-3.2-11.9c-5.1-5.5-11-6.9-11-6.9s-.1 5.1 3.5 10.2c3.6 5.2 10.7 8.6 10.7 8.6m-14.2-3.2s.6-7.1-3.9-12-10.1-4.6-10.1-4.6.1 5.4 3.9 10.2c3.7 4.7 10.1 6.4 10.1 6.4m-12.9-2s.8-5.4-4-10c-4.8-4.7-11-4.4-11-4.4s.4 4.5 4.4 9.5c3.9 5 10.6 4.9 10.6 4.9m-15.2-.2s-.2-5.8-4.1-9.8c-4-3.9-9.9-2.4-9.9-2.4s1.6 6.3 6.2 9.5c4.7 3.2 7.8 2.7 7.8 2.7m-9.4 1.2s-4-5-10.9-4.7-12.4 9.2-12.4 9.2 7.5 4.1 14.7 1.5c7.3-2.6 8.6-6 8.6-6m9.6 1.5s-4.7 0-8.9 2.5c-4.1 2.6-5.5 10.1-5.5 10.1s10.2-2.6 13.2-6.6c2.9-4.1 1.2-6 1.2-6m14.2 1s-4.1-1.2-9.2 2.3c-5.1 3.6-8.6 12.4-8.6 12.4s14.1-3.4 17-7.9c2.8-4.5.8-6.8.8-6.8m14.5 1.9s-3.6-.9-8.9 2.3c-5.4 3.2-8.4 9.2-8.4 9.2s10.3.2 14.4-3.6 2.9-7.9 2.9-7.9m13.8 3.3s-2.3-1.2-7.9 1.5c-5.5 2.8-8.6 10.6-8.6 10.6s7.9-1.6 12.8-5.3 3.7-6.8 3.7-6.8" class="B"/><path d="m55.1 233.9 10.7-9.9c-15.5-.1-25.2 2-25.2 2 8.2-2.5 16.5-3.7 24.5-4.1l-7.9-7.7 9.6 7.7c4.6-.2 9 0 13.4.3l-10.1-10.1 12.5 10.4q5.3.5 10.1 1.3l-7.2-9.1 10 9.7c3.9.7 7.6 1.6 11 2.5l-8.1-11.8 10.5 12.5c11.9 3.4 19.4 7 19.4 7v2.2c-6.1-2.6-12.1-4.6-17.9-6.3l-13.7 8.7 11.7-9.2q-5.9-1.7-11.5-2.8l-14.5 8 12.2-8.4q-6.2-1.2-11.9-1.8l-16 10.5 13.6-10.7c-4.5-.5-8.7-.7-12.6-.8z" class="I"/><path d="M311.1 208.8s-6.6-4.1-6.2-12.8 4.5-14.4 4.5-14.4 3.9 4.4 4.6 11.6c.8 7.3-2.9 15.6-2.9 15.6m10.1-13.5s-5.9-5.7-5.6-13.4c.2-7.7 5.4-11.7 5.4-11.7s4 4.8 4.3 11.8c.3 7.1-4.1 13.3-4.1 13.3m9.8-11.4s-4.7-4.2-4-11.9 6.4-12.1 6.4-12.1 3 4.3 3.3 11.6c.3 7.4-5.7 12.4-5.7 12.4m13.3-11.7s-4.2-5.2-3.8-11.7c.5-6.4 6.9-9.6 6.9-9.6s3.4 6.8 1.7 13.1c-1.7 6.4-4.8 8.2-4.8 8.2m9.1-6s-.1-7.4 6.1-12.4c6.3-4.9 17.9-1.2 17.9-1.2s-3.5 9.2-11.9 12.4-12.1 1.2-12.1 1.2m-7.3 8.5s4.2-3.5 9.8-4.4c5.5-.8 12.4 4.8 12.4 4.8s-10.9 5.4-16.6 4-5.6-4.4-5.6-4.4m-11.7 11.6s2.7-4.1 9.8-4.8 16.9 4.3 16.9 4.3-15 7.7-20.9 5.9c-5.8-1.8-5.8-5.4-5.8-5.4M323 198.9s2.5-3.5 9.7-4.7c7.1-1.1 14.2 1.8 14.2 1.8s-9 8-15.4 7.7c-6.5-.3-8.5-4.8-8.5-4.8m-9.6 13.3s1.1-2.8 8-4.5c6.9-1.8 15.6 2.8 15.6 2.8s-8.1 4.6-15.3 5c-7.1.4-8.3-3.3-8.3-3.3" class="B"/><path d="m362.9 174.7-16.9-.8c13.6-11.7 23.8-17.2 23.8-17.2-9.1 4-17.4 9.1-24.7 14.9l1.1-12.8-2.6 14c-4.2 3.3-8 6.8-11.6 10.4l1.3-16.4-3.3 18.5q-4.2 4.4-7.8 8.8l-.5-13.6-1.6 16.1c-2.8 3.6-5.4 7.2-7.7 10.5l-1.8-16.4.1 18.9c-7.9 11.9-11.8 20.8-11.8 20.8l1.8 1.8c3.4-6.8 7.1-13.1 10.9-18.9l18.6-2.7-17.2.7q3.9-5.9 8-11.1l18.8-3.9-17 1.8q4.6-5.7 9.1-10.6l22-2.8-20.1.8c3.7-3.7 7.2-7.1 10.6-10.1z" class="I"/><path d="M121.6 115.4h182.2c3.5 0 6.2 2.8 6.2 6.3v142.7c0 3.4-2.7 6.2-6.2 6.2H121.6c-3.4 0-6.2-2.8-6.2-6.2V121.7c0-3.5 2.8-6.3 6.2-6.3" class="C"/><path d="M249.2 187.2h23.1v-20.7h-23.1zm-47.4 21.2h23.5v-20.7h-23.5z" class="B"/><path d="M154 251.3h23.7V230H154zm118.3-21.5h22.5v-21h-22.5zM132.1 166h22.4v-21.3h-22.4zm71 90.8h91.2v-1.1h-91.2zm0 4.1h91.2v-1.1h-91.2zm0 4.1h91.2v-1.1h-91.2z" class="D"/><path fill="#4d8de3" d="M115.4 136.3v-14.6c0-3.5 2.8-6.3 6.2-6.3h182.2c3.5 0 6.2 2.8 6.2 6.3v14.6z"/><path d="M285.9 107.9c1.1 0 2 .9 2 1.9v15c0 1.1-.9 2-2 2-1 0-1.9-.9-1.9-2v-15a1.97 1.97 0 0 1 1.9-1.9m-24.4 0c1.1 0 2 .9 2 1.9v15c0 1.1-.9 2-2 2s-1.9-.9-1.9-2v-15c0-1 .8-1.9 1.9-1.9m-24.4 0c1.1 0 2 .9 2 1.9v15c0 1.1-.9 2-2 2s-2-.9-2-2v-15c0-1 .9-1.9 2-1.9m-24.4 0c1.1 0 2 .9 2 1.9v15c0 1.1-.9 2-2 2s-2-.9-2-2v-15c0-1 .9-1.9 2-1.9m-24.4 0c1.1 0 2 .9 2 1.9v15c0 1.1-.9 2-2 2s-2-.9-2-2v-15c0-1 .9-1.9 2-1.9m-24.4 0c1.1 0 2 .9 2 1.9v15c0 1.1-.9 2-2 2s-2-.9-2-2v-15c0-1 .9-1.9 2-1.9m-24.4 0c1.1 0 1.9.9 1.9 1.9v15c0 1.1-.8 2-1.9 2s-2-.9-2-2v-15c0-1 .9-1.9 2-1.9" class="C"/><g class="D"><path d="M131.8 144.5h163.3v107.1H131.8zm162.8.5H132.3v106.1h162.3z"/><path d="M272.3 251.3h.5V144.7h-.5zm-23.6 0h.5V144.7h-.5zm-23.7 0h.5V144.7h-.5zm-23.6 0h.4V144.7h-.4zm-23.7 0h.5V144.7h-.5zm-23.7 0h.5V144.7h-.5z"/><path d="M132.1 166.5h162.7v-.5H132.1zm0 21.2h162.7v-.5H132.1zm0 21.1h162.7v-.4H132.1zm0 21.2h162.7v-.5H132.1z"/></g><path fill="#d45454" d="M71.3 112.6c0 10.1 13.5 23.5 13.5 23.5s13.6-13.4 13.6-23.5c0-7.5-6.1-13.5-13.6-13.5-7.4 0-13.5 6-13.5 13.5m7.2 0c0-3.5 2.9-6.3 6.3-6.3 3.5 0 6.4 2.8 6.4 6.3s-2.9 6.3-6.4 6.3c-3.4 0-6.3-2.8-6.3-6.3"/><path fill="#fff" d="M90.7 141.5q.3 1.5 1.1 2.8l-1.6 1.6 2.8 2.9 1.7-1.7q1.2.8 2.7 1.2v2.3h4.1v-2.3q1.5-.4 2.7-1.2l1.7 1.7 2.8-2.9-1.6-1.6q.8-1.3 1.2-2.8h2.3v-4h-2.3q-.4-1.5-1.2-2.8l1.6-1.7-2.8-2.8-1.7 1.6q-1.2-.8-2.7-1.1v-2.3h-4.1v2.3q-1.5.3-2.7 1.1l-1.7-1.6-2.8 2.8 1.6 1.7q-.8 1.3-1.1 2.8h-2.3v4zm3.2-2c0-3.1 2.5-5.5 5.5-5.5 3.1 0 5.6 2.4 5.6 5.5 0 3-2.5 5.5-5.6 5.5-3 0-5.5-2.5-5.5-5.5M294.1 100.9q.4 1.5 1.2 2.7l-1.6 1.6 2.7 2.7 1.6-1.6q1.2.8 2.7 1.1v2.3h3.8v-2.3q1.5-.3 2.7-1.1l1.6 1.6 2.7-2.7-1.6-1.6q.8-1.2 1.1-2.7h2.3V97H311q-.3-1.4-1.1-2.6l1.6-1.6-2.7-2.7-1.6 1.5q-1.2-.7-2.7-1.1v-2.2h-3.8v2.2q-1.5.4-2.7 1.1l-1.6-1.5-2.7 2.7 1.6 1.6q-.8 1.2-1.2 2.6h-2.2v3.9zm3.2-1.9c0-2.9 2.3-5.3 5.3-5.3 2.9 0 5.3 2.4 5.3 5.3s-2.4 5.3-5.3 5.3c-3 0-5.3-2.4-5.3-5.3M131.7 89c.4 1.7 1.1 3.2 2 4.6l-2.8 2.8 4.8 4.8 2.8-2.7c1.4.8 2.9 1.5 4.6 1.9v3.9h6.8v-3.9c1.7-.4 3.3-1.1 4.7-1.9l2.7 2.7 4.8-4.8-2.7-2.8c.9-1.4 1.5-2.9 1.9-4.6h3.9v-6.8h-3.9c-.4-1.7-1-3.3-1.9-4.7l2.7-2.7-4.8-4.8-2.7 2.7c-1.4-.9-3-1.5-4.7-1.9v-3.9h-6.8v3.9c-1.7.4-3.2 1-4.6 1.9l-2.8-2.7-4.8 4.8 2.8 2.7c-.9 1.4-1.6 3-2 4.7h-3.9V89zm5.5-3.4c0-5.1 4.2-9.3 9.3-9.3s9.3 4.2 9.3 9.3-4.2 9.3-9.3 9.3-9.3-4.2-9.3-9.3"/><g class="C"><path d="M268 173.4h-3.5l-3.7 7.2-8.5-10.8 8.5 15.1zm-46.7 20.7h-3.5l-3.7 7.2-8.5-10.8 8.5 15.1zm-61.9 52l1 1 11.9-11.9-1-1z"/><path d="m172.3 246.1-1 1-11.9-11.9 1-1zM136.8 160.8l1 1 11.9-11.9-1-1z"/><path d="m149.7 160.8-1 1-11.9-11.9 1-1zM277.1 224.7l1 1.1 11.9-11.9-1-1z"/><path d="m290 224.7-1 1.1-11.9-11.9 1-1z"/></g><path fill="#b37289" d="M154.3 252.4l9.5 15c1.4 2.3.7 5.4-1.6 6.9-2.3 1.4-5.4.8-6.8-1.6l-9.5-15zm-61.7 0l-9.5 15c-1.5 2.3-.8 5.4 1.5 6.9 2.3 1.4 5.4.8 6.9-1.6l9.5-15z"/><path d="m150.7 187.4 6 5.4 9-10.2-6.1-5.4z" class="B"/><path d="m159.9 175.3 7.6 6.7c.7.6.8 1.6.2 2.3l-2.6 2.9c-.6.7-1.6.7-2.3.1l-7.6-6.6c-.6-.6-.7-1.7-.1-2.3l2.5-2.9c.6-.7 1.7-.8 2.3-.2" class="D"/><path d="m96.2 187.4-6.1 5.4-8.9-10.2 6.1-5.4z" class="B"/><path d="m86.9 175.3-7.6 6.7c-.6.6-.7 1.6-.1 2.3l2.5 2.9c.6.7 1.6.7 2.3.1l7.6-6.6c.7-.6.7-1.7.2-2.3l-2.6-2.9c-.6-.7-1.6-.8-2.3-.2" class="D"/><path d="M117.9 181.5h11V162h-11z" class="B"/><path d="M115.8 170.2H131v-10.4h-15.2z" class="D"/><path fill="#508be4" d="M76.4 224.5c0 26 21 47.1 47 47.1s47.1-21.1 47.1-47.1-21.1-47-47.1-47-47 21-47 47"/><path d="M82.9 224.5c0 22.4 18.1 40.6 40.5 40.6s40.6-18.2 40.6-40.6-18.2-40.6-40.6-40.6-40.5 18.2-40.5 40.6" class="B"/><path fill="#f6f9fa" d="M84.8 224.5c0 21.3 17.3 38.6 38.6 38.6s38.6-17.3 38.6-38.6-17.3-38.6-38.6-38.6-38.6 17.3-38.6 38.6"/><path fill="#bed1e7" d="M98.9 224.5c0 13.6 11 24.6 24.5 24.6 13.6 0 24.6-11 24.6-24.6 0-13.5-11-24.5-24.6-24.5-13.5 0-24.5 11-24.5 24.5"/><g fill="#d1807d"><path d="M120.5 224.5c0 1.7 1.3 3 2.9 3 1.7 0 3-1.3 3-3 0-1.6-1.3-2.9-3-2.9-1.6 0-2.9 1.3-2.9 2.9M123.4 197.4c.6 0 1.1-.4 1.1-1v-7.3c0-.6-.5-1.1-1.1-1.1s-1.1.5-1.1 1.1v7.3c0 .6.5 1 1.1 1M96.3 224.5c0-.6-.4-1.1-1-1.1H88c-.6 0-1.1.5-1.1 1.1s.5 1.1 1.1 1.1h7.3c.6 0 1-.5 1-1.1M123.4 251.6c-.6 0-1.1.5-1.1 1.1v7.2c0 .6.5 1.1 1.1 1.1s1.1-.5 1.1-1.1v-7.2c0-.6-.5-1.1-1.1-1.1M150.5 224.5c0 .6.5 1.1 1.1 1.1h7.2c.6 0 1.1-.5 1.1-1.1s-.5-1.1-1.1-1.1h-7.2c-.6 0-1.1.5-1.1 1.1M104.3 205.4c.4-.5.4-1.1 0-1.6l-5.2-5.1c-.4-.4-1.1-.4-1.5 0s-.4 1.1 0 1.5l5.1 5.2c.5.4 1.2.4 1.6 0M104.3 243.7c-.5-.4-1.1-.4-1.6 0l-5.1 5.1c-.4.4-.4 1.1 0 1.5s1.1.4 1.5 0l5.2-5.1c.4-.4.4-1.1 0-1.5M142.6 243.7c-.4.4-.4 1.1 0 1.5l5.1 5.1c.4.4 1.1.4 1.5 0 .5-.4.5-1.1 0-1.5l-5.1-5.1c-.4-.4-1.1-.4-1.5 0M142.6 205.4c.4.4 1.1.4 1.5 0l5.1-5.2c.5-.4.5-1.1 0-1.5-.4-.4-1.1-.4-1.5 0l-5.1 5.1c-.4.5-.4 1.1 0 1.6"/><path d="m123.4 203.3 1.9 21.2h-3.7z"/></g><path d="M291.3 172.4s-1.6-1.8-2.2-3.4c-.7-1.6-1.1-4.2-1.4-5-.4-.7-.8 0-.9 1.2 0 1.2.5 2 .1 2-.4-.1-2.1-2.1-2.5-3.7-.4-1.5-.9-1.3-1.5.5-.7 1.7-.6 4 .3 5.4s3 2.4 3.6 2.8c.6.5 1.8 1.9 1.8 1.9z" class="E"/><path fill="#c44c4c" d="M309 165.3l-11.5 14.2c-.8.6-7.2-9.5-7.2-9.5s-3.2 2.7-3.4 3.2c-.1.5 7 15.3 10.4 15.1 3.3-.2 14.4-12.7 15.4-15.4.9-2.7-3.7-7.6-3.7-7.6"/><path d="M310.5 267.9s.8 6.1-.1 6.5c-.9.5-15.1 1.1-15.7-.3-.7-1.4 9.9-4.7 9.9-4.7l.6-2zm21.8-1.2s1.8 6.4 1 7c-.9.6-14.2 2.1-15 .9-.8-1.3 8.4-5.4 8.4-5.4l.3-2.1z" class="F"/><path fill="#274070" d="M329.2 203.6l-.5 32.8c-.1 6.2 4.4 31.4 4.4 31.4l-6.9.9-6.3-27.5c-.9-4.9-3-24.3-3-24.3s-4.7 15.5-5.3 21.2c-.6 5.8-.4 30.6-.4 30.6H304l-2-30.3c0-5.7 5.2-35 5.2-35z"/><path fill="#d45454" d="M324.8 163.8s-8.1-2.8-15.8 1.5c-3 1.7 1 16.9-3.3 39.6-.1.5 24.2 0 24.2 0l-.9-31.8c0-4.4-.2-8.6-4.2-9.3"/><path fill="#d27f7d" d="M337.4 219.3c2-2 2-5.2.1-7.2l-60.3-60.3-7.2 7.2 60.2 60.3c2 2 5.2 2 7.2 0"/><path d="M327.6 216.6 270 159l7.2-7.2 57.6 57.6z" class="B"/><path fill="#2e4b7e" d="M329.6 214.6 272 156.9l3.1-3.1 57.6 57.6z"/><path fill="#dbbb99" d="m277.2 151.8-13.9-6.8 6.7 14z"/><path d="m265.9 150.6-2.6-5.6 5.5 2.7z" class="F"/><path d="M327.6 216.6 325 214l7.2-7.2 2.6 2.6z" class="C"/><path d="M323.4 196.6s-1.5 1.8-3 2.7-4 1.7-4.7 2.2.1.8 1.3.7c1.2-.2 1.9-.8 1.9-.4s-1.7 2.3-3.1 3c-1.5.7-1.2 1.1.6 1.4 1.9.4 4.1 0 5.4-1.1 1.2-1.2 1.8-3.4 2.1-4 .4-.7 1.6-2.2 1.6-2.2z" class="E"/><path fill="#da6767" d="M322.6 167c-.1-2.1 2-3.6 3.9-2.9 1.1.3 2.5 1.1 3.4 2.8 1.6 3.1 6.5 16 5.5 19.7-.9 3.6-9.7 13.6-9.7 13.6l-3.6-2.8s7.6-10.7 7.1-12.7c-.5-2.1-5.4-12.9-6.3-16.1q-.3-.9-.3-1.6"/><path d="M314.4 164.4s-3.7 2.9-1.6 3.9c2.1.9 9.6-3.4 9.2-4.3-.8-2-1.2-6.9-1.2-6.9l-6.2 2.9s1.2 3-.2 4.4" class="E"/><path fill="#e4c19b" d="M314.4 164.4c1.4-1.4.2-4.4.2-4.4l6.2-2.9s.1 1.5.4 3.2c-.7 1.9-2.1 4.1-4.9 5.1-.9.4-2.2.6-3.5.6.7-.8 1.6-1.6 1.6-1.6"/><path d="M322.7 152.4c.2 2.1-.2 4.3-1.4 6.1q-.4.7-1.1 1.4c-2.7 2.6-5.4 3-7 2.3-1.6-.6-4-8.9-2.7-12.7.9-2.5 6.4-4.4 9.7-2.6 1.8 1 2.4 3.5 2.5 5.5" class="E"/><path d="M320.2 155.9s1.5-1.5.9-3c-.7-1.5-2.1.6-2 1 0 .5.2 1.3-.3 1.4-.5 0-.6-1.1-1.3-1.8-.7-.8-1-2-.4-3.5.7-1.5-3.1.5-5.4.8-2.2.3-3.6-1.1-2.4-2.2s6.3-4.1 8.5-3.9c2.3.2 3 1.7 3 1.7s2.4.5 3 2.8c.5 2.3.2 5.9-2.1 8.6 0 0-1-.7-1.5-1.9" class="F"/><path d="M245.9 201.7c0 1.1-.8 2-.6 3.9 0 .4.1 1 .3 1.7.5 1.8.8 2.3.8 2.3l-6.7 1.1s-.5-2.2-.7-2.5-1.4 1.1-3.1.5-4.8-6.6-4-10.2c.6-2.3.8-3.1 3.8-4.2s8.6-1.4 9.9 2.6c.6 2 .3 3.3.3 4.8" class="E"/><g class="F"><path d="M248.2 264.6s6.8-1.6 7.5-.9 2.7 9.7 2.4 11.2c-.3 1.6-7.2 3.6-7.5 2.1-.3-1.4 3.1-1.2 2.4-3.6-.7-2.5-3-4.4-3-4.4l-2.2.4z"/><path d="M240.7 247.7s-24.9 12.8-21.4 21.1c.8 1.8 1.4 3.6 4.3 4 8.8 1.3 25.5-2.8 25.5-2.8l-.6-6.1-15.7 1.2s19.7-5.5 24-10.3c4.4-4.8 3.6-11.5 3.6-11.5z"/><path d="M239.8 270.5s1.7 4 1.5 5.2c-.2 1.1-14.1 2.5-14.3 1.6-.3-1 7.5-4.1 7.5-4.9-.1-.8-.4-1.9-.4-1.9z"/></g><path fill="#274070" d="M255.2 246.3s-30.7-13.7-38.5-5.9c-4.7 4.7 17.2 31.4 17.2 31.4l6.7-.9-10-19.5s12.4 6.8 20 4.4 8.3-9 8.3-9z"/><path fill="#c47891" d="M250.4 210.5s12.5 14.3 13.1 21.1-20.5 6.7-20.5 6.7-.6-5-.4-5c.3 0 12.6-1.9 12.5-2.9-.1-1.1-7.9-7.4-8.3-12.7s3.6-7.2 3.6-7.2"/><path fill="#d08b9f" d="M253.2 214.1c-1.5-3.8-3.5-4.5-6.3-5.1-3.4-.7-8.1-.7-11.2 3.2-5.5 6.9-.4 16.1 1.1 21.4 1.9 6.9.3 9.2 1.1 9.8.8.5 19.5 9.8 22.8 4.6 2.9-4.5-3.5-24-7.5-33.9"/><path d="M215.8 207.8s-.3-1.7 0-2.8c.2-1.2 1.2-5.1.4-5s-.8 2.2-1.6 2.6c-.7.4-1.6-2.9-2.2-4.9-.5-1.9-.9-1.9-1.6.1-.7 2.1-.7 3.9-.3 5.2.4 1.4 1.2 2.8 1.5 3.4s.9 2.7.9 2.7z" class="E"/><path fill="#c47891" d="M238.1 220.3c2.3-1.2 3.9-3.4 4.3-5.9.2-1.6 0-3.2-1.4-4.3-3.6-2.4-10.3 6.6-16.5 9.4 0 0-1.9 1-2.4.9-1.2-.3-5.9-13.2-5.9-13.2s-4.3.9-4.3 1.5 2.7 15.2 7.6 19c0 0 .8 1.1 3.6.4 2-.6 10.7-5.3 15-7.8"/><path d="M245.7 205.1s-.7 1.1-3.4 1.2c-3.4.3-2.9-2.6-3.7-3.7-.8-1-1.6-1.3-2-.3s.1 1.8-.3 1.5c-.4-.2-.9-2-1.5-2.7-.6-.6-1.2-.2-1.3-1.7s-2.5-1.1-2.6-2c-.2-1 1.7-3.5 5.7-4.9s6.8-.9 7.3.2c.6 1.1 1.9.4 3 3.2 1.2 2.7-1.2 9.2-1.2 9.2" class="F"/><path d="M284.3 53.1h-40.9c-2.3 0-4.1 1.8-4.1 4v20.1c0 2.3 1.8 4.1 4.1 4.1h1.5v7.4l4.4-7.4h35c2.3 0 4.1-1.8 4.1-4.1V57.1c0-2.2-1.8-4-4.1-4" class="B"/><path d="M273.6 65.8c0 2.2 1.7 3.9 3.8 3.9s3.9-1.7 3.9-3.9c0-2.1-1.8-3.8-3.9-3.8s-3.8 1.7-3.8 3.8M260 65.8c0 2.2 1.7 3.9 3.8 3.9 2.2 0 3.9-1.7 3.9-3.9 0-2.1-1.7-3.8-3.9-3.8-2.1 0-3.8 1.7-3.8 3.8M246.4 65.8c0 2.2 1.8 3.9 3.9 3.9s3.8-1.7 3.8-3.9c0-2.1-1.7-3.8-3.8-3.8s-3.9 1.7-3.9 3.8" class="C"/><path d="M183.9 64.5h46.6c2.6 0 4.7 2 4.7 4.6v22.5c0 2.5-2.1 4.6-4.7 4.6h-1.7v8l-5-8h-39.9c-2.5 0-4.6-2.1-4.6-4.6V69.1c0-2.6 2.1-4.6 4.6-4.6" class="D"/><path d="M218.3 80.4c0 2.4 2 4.4 4.4 4.4s4.4-2 4.4-4.4-2-4.4-4.4-4.4-4.4 2-4.4 4.4m-15.5 0c0 2.4 2 4.4 4.4 4.4 2.5 0 4.4-2 4.4-4.4s-1.9-4.4-4.4-4.4c-2.4 0-4.4 2-4.4 4.4m-15.4 0c0 2.4 1.9 4.4 4.4 4.4 2.4 0 4.4-2 4.4-4.4s-2-4.4-4.4-4.4c-2.5 0-4.4 2-4.4 4.4" class="C"/><path fill="#fff" d="M297.8 76.9h81.5s-2.2-6.1-16.6-6.8c0 0 2.7-14.4-11-18.1-13.6-3.7-17.8 9-17.8 9s-8-5.8-16.3-1.7c-8.3 4.2-7.1 11.7-7.1 11.7s-6.9-.4-12.7 5.9M147 47.4h92.4s-5.8-4.5-18.8-6.5c0 0 .9-8.4-6.4-12.8C206.5 23.5 201 30 201 30s-.2-9.3-9.5-11.2c-10.7-2.3-17.1 6.6-15.9 13.7 0 0-4.4-5.2-11.2-1.8-6.8 3.5-5.1 10.1-5.1 10.1s-6.8 1.6-12.3 6.6"/></svg>