<svg xmlns="http://www.w3.org/2000/svg" viewBox="0 0 128 128" xmlns:v="https://vecta.io/nano"><style><![CDATA[.G{stroke-linecap:round}.H{stroke-linejoin:round}.I{fill:#ffd8c9}.J{fill:#f85565}.K{fill:#515570}]]></style><circle cx="64" cy="64" r="60" class="I"/><circle cx="64" cy="64" r="48" fill="#fff" opacity=".3"/><path d="M64 14a31 31 0 0 1 31 31v41.07A9.93 9.93 0 0 1 85.07 96H42.93A9.93 9.93 0 0 1 33 86.07V45a31 31 0 0 1 31-31" fill="#393c54"/><circle cx="89" cy="60" r="7" fill="#fbc0aa"/><path d="M64 124a59.7 59.7 0 0 0 34.7-11.07l-3.33-10.29A10 10 0 0 0 86 96H42.05a10 10 0 0 0-9.42 6.64l-3.33 10.29A59.7 59.7 0 0 0 64 124" fill="#00adfe"/><path d="M46.54 121.45a59.93 59.93 0 0 0 34.92 0L79 96H49Z" fill="#ff8475"/><path d="M48.13 105h31.74l-.39-4H48.52z" class="J"/><path d="M76 96a12 12 0 0 1-24 0Z" class="I"/><path d="M64 83v12" fill="none" stroke="#fbc0aa" stroke-width="14" class="G H"/><circle cx="39" cy="60" r="7" fill="#fbc0aa"/><path d="M64 90a25 25 0 0 1-25-25V48.52a25 25 0 1 1 50 0V65a25 25 0 0 1-25 25" class="I"/><path d="M64 64.75v6.5" fill="none" stroke="#fbc0aa" stroke-width="5" class="G H"/><path d="M64.83 18.35a27.51 27.51 0 0 0-28.32 27.47v4.76a2 2 0 0 0 2 2h.58a1 1 0 0 0 .86-.49L44 45l2.48 4.13a1 1 0 0 0 1.71 0L50.67 45l2.47 4.13a1 1 0 0 0 1.72 0L57.33 45l2.48 4.13a1 1 0 0 0 1.71 0L64 45l2.48 4.13a1 1 0 0 0 1.71 0L70.67 45l2.47 4.13a1 1 0 0 0 1.72 0L77.33 45l2.48 4.13a1 1 0 0 0 1.71 0L84 45l4 7.09a1 1 0 0 0 .86.49h.58a2 2 0 0 0 2-2V46.4c.05-14.95-11.66-27.61-26.61-28.05" class="K"/><path d="M47.35 113h33.29l-.38-4H47.74zm-.77 8h34.84l-.39-4H46.97z" class="J"/><path d="M58.52 79.39c0-.84 11-.84 11 0 0 1.79-2.45 3.25-5.48 3.25s-5.52-1.46-5.52-3.25" fill="#ff8475" opacity=".7"/><path d="M69.48 79.29c0 .78-11 .78-11 0C58.52 77.5 61 76 64 76s5.48 1.5 5.48 3.29" opacity=".7" class="J"/><circle cx="76.25" cy="58.75" r="3" class="K"/><g fill="none" stroke="#515570" class="G H"><path d="M70.75 59.84a6.61 6.61 0 0 1 11.5-1.31"/><path d="m72.11 51.46 5.68-.4a4.62 4.62 0 0 1 4.21 2.1l.77 1.21" stroke-width="2" opacity=".2"/></g><circle cx="51.75" cy="58.75" r="3" class="K"/><g fill="none" class="G"><g stroke="#515570" class="H"><path d="M57.25 59.84a6.61 6.61 0 0 0-11.5-1.31"/><path d="m55.89 51.45-5.68-.39A4.59 4.59 0 0 0 46 53.17l-.77 1.21" stroke-width="2" opacity=".2"/></g><path d="M57.25 78.76A17.4 17.4 0 0 0 64 79.88a17.4 17.4 0 0 0 6.75-1.12" stroke="#f85565" stroke-miterlimit="10"/></g></svg>