<svg xmlns="http://www.w3.org/2000/svg" viewBox="0 0 512 512" xmlns:v="https://vecta.io/nano"><path d="m179.3 349-.2.2 40.7 63.1 27.6-25.1 8.6-7.8.4.4 35.8 32.5 40.7-63.1-.2-.2c29.2 18.7 67.2 29.1 99.5 36.3 2.4.5 4.6 1.2 6.7 2 20.8-33.2 32.9-72.5 32.9-114.5C471.7 153.6 375.1 57 256 57S40.3 153.6 40.3 272.8c0 42.1 12.1 81.3 32.9 114.5 2.1-.8 4.4-1.4 6.7-2 32.2-7.2 70.3-17.6 99.4-36.3" fill="#1099d6"/><path d="M120.4 287.1c-17.6-181 32.1-263.6 135.4-263.6S414.3 117.1 389 287.1c-77.3 45.3-201.9 37.8-268.6 0" fill-rule="evenodd" fill="#851619"/><path d="M256 197.3v186.2c16.1-1.9 31.1-17.5 44.1-34.5V241c0-29.1-22.1-43.7-44.1-43.7" fill="#edd9b4"/><path d="M211.9 241.1v108c15.1 27.5 30 36.2 44.1 34.5V197.3c-22 0-44.1 14.6-44.1 43.8" fill="#dcc5a1"/><path d="M300.1 236.7V309c-16.7 13-32.8 20.4-44.1 20.4s-27.4-7.3-44.1-20.4v-72.3c0-58.3 88.2-58.3 88.2 0" fill-rule="evenodd" fill="#bc9f82"/><path d="M255.7 42.9c-79.4 0-116.7 70.8-112.6 132.1-5-3.4-10.1-4.5-14.4-2.7-9.2 4-11.2 20.1-4.3 36.1s19.9 25.7 29.1 21.7c1.6-.7 2.9-1.7 4.1-3.1 24.9 50.7 73.4 84.3 98.1 84.3z" fill="#dcc5a1"/><path d="M383.3 172.3c-4.5-1.9-9.9-.6-15 3.1 4.3-61.5-33-132.5-112.6-132.5v268.5c24.8 0 73.5-33.8 98.4-84.8 1.2 1.5 2.7 2.7 4.5 3.5 9.2 4 22.3-5.8 29.1-21.7 6.8-16 4.9-32.1-4.4-36.1" fill="#edd9b4"/><g fill-rule="evenodd" fill="#851619"><path d="M316.5 90.6c46.4 29.6 49.1 69.3 51 100 20.9-26 22.7-118-51-100m-119.2 0c-46.4 29.6-49.1 69.3-51 100-20.9-26-22.7-118 51-100"/><path d="M138 118.2c4.1-132.3 234.4-119.9 235.5 0-23.7 5.7-52.4 9.1-82.3 10.5-1.7-11.9-5.1-27.1-11.1-46.4-3.2 9.1-5.3 29.1-6.3 46.9-17.5.4-35 .1-52-.7-1-17.5-3.1-36.5-6.2-45.4-5.7 18.2-9.1 32.8-10.8 44.3-25.4-1.8-48.6-5-66.8-9.2"/></g><path d="M268.6 261.7s.5 8-13.2 8c-4 0-13-1.7-13-7.8 8.1 1.9 17.7 2.4 26.2-.2" fill="#d43329"/><path d="M260.7 258.4c3 .4 8.3 3.2 7.9 3.3-8.5 2.6-18.1 2.1-26.1.2-.1 0-.2 0-.2-.1 2.7-1.1 6.3-3.4 8.9-3.2 1.4.1 3.1 1.2 4.4 1.2 1.9 0 3.1-1.7 5.1-1.4" fill="#ca3029"/><path d="M238 260.7c10.2 4.3 24.5 4.7 34.6-.2.2-.1.1-.5-.2-.4-12 3.8-22.1 3.1-34.4.6 0-.1-.1-.1 0 0" fill="#a82623"/><path d="M208 178.3c6.5 0 11.8 6 11.8 13.4s-5.3 13.4-11.8 13.4-11.8-6-11.8-13.4 5.3-13.4 11.8-13.4m96 0c6.5 0 11.8 6 11.8 13.4s-5.3 13.4-11.8 13.4-11.8-6-11.8-13.4 5.3-13.4 11.8-13.4" fill="#342214"/><path d="m256.4 379.8-.4-.4-8.6 7.8 8.6-7.8z" fill="#fff"/><path d="M247.4 488.3V387.2l-27.6 25.1-40.7-63.1.2-.2c-29.2 18.7-67.2 29.1-99.5 36.3-2.4.5-4.6 1.2-6.7 2 36.8 58.5 100.8 98.1 174.3 101M332.7 349l.2.2-40.7 63.1-35.8-32.5 8.2 7.4v101.1c73.5-2.9 137.5-42.5 174.3-101-2.1-.8-4.4-1.4-6.7-2-32.3-7.2-70.4-17.6-99.5-36.3" fill="#1b75bc"/><path d="M332.7 349l-32.6-29.9-44.1 60.3-44.1-60.3-32.6 29.9-.2.2 40.7 63.1 27.6-25.1v101.1l8.6.2 8.6-.2V387.2l27.6 25.1 40.7-63.1zm-85.3 38.2" fill="#fff"/></svg>