<svg xmlns="http://www.w3.org/2000/svg" viewBox="0 0 512 512" xmlns:v="https://vecta.io/nano"><path d="M90.4 379.5c10.5-9.3 37.1-30 125.5-68.8l81 .5c88.5 38.8 114.1 58.9 124.6 68.2 4.1 3.6 7.7 9.6 10.9 17.4 24.7-35.1 39.2-77.9 39.2-124.1C471.7 153.6 375.1 57 256 57S40.3 153.6 40.3 272.8c0 46.2 14.5 89 39.2 124.1 3.3-7.8 6.9-13.9 10.9-17.4" fill="#64b7b2"/><path d="M142.9 456.5l2-15.4v16.7c26.5 15.9 56.6 26.3 88.9 29.6l14.1-98.6-11.1-16.3 19.4-19.7 18.5 19.5-10.7 16.5 14.1 98.6c32.2-3.3 62.3-13.7 88.7-29.5v-16.8l2 15.5c25-15.4 46.7-35.8 63.6-59.8-3.3-7.7-6.9-13.8-10.9-17.4-10.5-9.3-36.1-29.4-124.6-68.2l-81-.5c-88.5 38.8-115.1 59.5-125.5 68.8-4.1 3.6-7.6 9.6-10.9 17.4 16.9 23.9 38.4 44.2 63.4 59.6" fill="#00a79d"/><path d="M213.3 236.5v97.2c11.7 13.8 27.1 21 42.6 21.1V197.1c-21.3 0-42.6 13.1-42.6 39.4" fill="#dcc5a1"/><path d="M255.9 197.1v157.7c15.4.1 30.9-6.8 42.6-21.1v-97.2c0-26.3-21.3-39.4-42.6-39.4" fill="#edd9b4"/><g fill-rule="evenodd"><path d="M298.5 232.6v65.1c-16.1 11.7-31.6 18.3-42.6 18.3-10.9 0-26.5-6.6-42.6-18.3v-65.1c0-52.5 85.2-52.5 85.2 0" fill="#bc9f82"/><g fill="#4b1f0d"><path d="M318.8 111.5c18.7 0 33.9-15.2 33.9-33.9s-15.2-33.9-33.9-33.9-33.9 15.3-33.9 33.9c0 18.7 15.2 33.9 33.9 33.9"/><use href="#B"/><path d="M234.6 91.4c18.7 0 33.9-15.2 33.9-33.9s-15.2-33.9-33.9-33.9-33.9 15.2-33.9 33.9c-.1 18.6 15.2 33.9 33.9 33.9"/><path d="M188.9 108c18.7 0 33.9-15.3 33.9-33.9 0-18.7-15.2-33.9-33.9-33.9S155 55.4 155 74.1s15.3 33.9 33.9 33.9"/><path d="M162.6 145.8c18.7 0 33.9-15.2 33.9-33.9S181.3 78 162.6 78s-33.9 15.2-33.9 33.9c0 18.6 15.2 33.9 33.9 33.9m185.2.8c18.7 0 33.9-15.2 33.9-33.9s-15.3-33.9-33.9-33.9c-18.7 0-33.9 15.2-33.9 33.9s15.2 33.9 33.9 33.9"/><path d="M349.5 194c18.7 0 33.9-15.2 33.9-33.9s-15.2-33.9-33.9-33.9-33.9 15.2-33.9 33.9 15.3 33.9 33.9 33.9"/><path d="M325 251.1c18.7 0 33.9-15.2 33.9-33.9s-15.2-33.9-33.9-33.9-33.9 15.2-33.9 33.9c-.1 18.6 15.2 33.9 33.9 33.9m-165-62.3c18.7 0 33.9-15.2 33.9-33.9S178.7 121 160 121s-33.9 15.2-33.9 33.9c0 18.6 15.2 33.9 33.9 33.9m24.6 66.7c18.7 0 33.9-15.2 33.9-33.9s-15.2-33.9-33.9-33.9-33.9 15.2-33.9 33.9c-.1 18.6 15.2 33.9 33.9 33.9"/><path d="M344.7 226.5c18.7 0 33.9-15.2 33.9-33.9s-15.2-33.9-33.9-33.9-33.9 15.2-33.9 33.9c-.1 18.6 15.2 33.9 33.9 33.9m-179.8-2.4c18.7 0 33.9-15.2 33.9-33.9s-15.2-33.9-33.9-33.9-33.9 15.2-33.9 33.9c0 18.6 15.2 33.9 33.9 33.9"/></g><path d="M157.5 176.1c-3.4-2.5-7.1-3.5-10.3-2.5-7.5 2.5-10.1 15-5.8 27.9 4.3 13 13.8 21.5 21.3 19 .5-.2 1-.4 1.5-.7 3.6 14.8 7.6 25.4 9.7 28.4 10.3 15.2 59.1 55.3 82.2 55.3V62c-85.5 0-101.6 61.6-98.6 114.1" fill="#dcc5a1"/><path d="M366.3 173.7c-3.8-1.3-8.1.3-12.1 3.9C357.6 124.7 342 62 255.9 62v241.7c23.1 0 71.9-40.2 82.2-55.3 2.1-3.1 6.3-14.1 9.9-29.4.9.7 1.8 1.3 2.9 1.6 7.5 2.5 17-6 21.3-19 4.2-12.9 1.6-25.4-5.9-27.9" fill="#edd9b4"/><g fill="#4b1f0d"><use href="#B" x="-41.3" y="23.7"/><path d="M290.7 118.6c18.7 0 33.9-15.2 33.9-33.9s-15.2-33.9-33.9-33.9-33.9 15.2-33.9 33.9c0 18.6 15.3 33.9 33.9 33.9M210 130.9c18.7 0 33.9-15.2 33.9-33.9S228.7 63.1 210 63.1 176.1 78.3 176.1 97c0 18.6 15.2 33.9 33.9 33.9"/><path d="M184.8 142.7c15.9 0 28.9-13 28.9-28.9s-13-28.9-28.9-28.9-28.9 13-28.9 28.9 13 28.9 28.9 28.9m133.2-3.1c18.7 0 33.9-15.2 33.9-33.9S336.7 71.8 318 71.8s-33.9 15.2-33.9 33.9c-.1 18.7 15.2 33.9 33.9 33.9"/><path d="M345.5 162.6c13.2 0 23.9-10.8 23.9-23.9 0-13.2-10.8-23.9-23.9-23.9-13.2 0-23.9 10.8-23.9 23.9 0 13.2 10.7 23.9 23.9 23.9m-176.1 4.6c12.8 0 23.2-10.4 23.2-23.2s-10.4-23.2-23.2-23.2-23.2 10.4-23.2 23.2 10.4 23.2 23.2 23.2"/><path d="M164.6 183c8.2 0 14.8-6.7 14.8-14.8 0-8.2-6.7-14.8-14.8-14.8-8.2 0-14.8 6.7-14.8 14.8-.1 8.2 6.6 14.8 14.8 14.8m185.1 1.8c8.2 0 14.8-6.7 14.8-14.8 0-8.2-6.7-14.8-14.8-14.8-8.2 0-14.8 6.7-14.8 14.8s6.7 14.8 14.8 14.8"/><path d="M166.3 196.2c5.8 0 10.4-4.7 10.4-10.4s-4.7-10.4-10.4-10.4-10.4 4.7-10.4 10.4 4.7 10.4 10.4 10.4m181.7-.9c5.8 0 10.4-4.7 10.4-10.4s-4.7-10.4-10.4-10.4-10.4 4.7-10.4 10.4 4.6 10.4 10.4 10.4"/></g></g><path d="M349.6 171.9c-2.7-2.1-27.9-10.8-37.5-11.1 0 0-21.6-2.6-32.3 2.4-10.7 4.9-12.9 4.2-23.3 4.7h-2c-10.4-.5-12.6.2-23.3-4.7s-32.3-2.4-32.3-2.4c-9.6.2-34.8 8.9-37.5 11.1-2.7 2.1 0 5.5 0 5.5 10.9-.9 12.3 17.5 12.3 17.5 1.3 5 3.1 9.5 6 13.7 3.6 5.2 8.7 9.4 14.7 11.6 5.7 2.1 11 2.2 17.1 2.2 7.9-.1 15.2-2.1 21.2-7.2 11.1-9.3 14.9-33.5 14.9-33.5-1.5-.7-1.6-3.5-1.6-3.5-.1-4.1 6.4-4.5 8.5-4.5h2c2 0 8.6.4 8.5 4.5 0 0-.1 2.8-1.6 3.5 0 0 3.9 24.2 14.9 33.5 6 5 13.4 7.1 21.2 7.2 6.1.1 11.4-.1 17.1-2.2 6-2.2 11.1-6.4 14.7-11.6 2.9-4.2 4.8-8.8 6-13.7 0 0 1.4-18.5 12.4-17.5-.1 0 2.6-3.4-.1-5.5m-109.1 18.8c-2 14.1-5.7 21.5-14.7 25.7-9.1 4.2-17 3.5-17 3.5s-7.7.7-16.8-3.5-12.5-11.6-14.5-25.7c-.3-2.4-.6-4.8-.6-7.2.1-6.6 3.3-13.9 9.7-16.8 4-1.8 9.4-2.4 13.7-2.7 2.8-.2 5.7-.4 8.5-.4.9 0 1.8.1 2.7.2 7.3.6 16.1.6 22.4 4.8 1.1.8 2.2 1.6 3.2 2.7 4.7 5.2 4.4 12.8 3.4 19.4m92.9 0c-2 14.1-5.4 21.5-14.5 25.7s-16.8 3.5-16.8 3.5-7.9.7-17-3.5-12.7-11.6-14.7-25.7c-.9-6.6-1.3-14.2 3.5-19.4 1-1.1 2-1.9 3.2-2.7 6.3-4.2 15.1-4.2 22.4-4.8.9-.1 1.8-.2 2.6-.2 2.8 0 5.7.2 8.5.4 4.3.3 9.8.9 13.7 2.7 6.3 2.9 9.6 10.2 9.7 16.8 0 2.3-.2 4.8-.6 7.2" fill="#010101"/><g opacity=".3"><defs><path id="A" d="M176.9 163.5h64.2v56.3h-64.2z"/><path id="B" d="M285.5 96.6c18.7 0 33.9-15.2 33.9-33.9s-15.2-33.9-33.9-33.9-33.9 15.2-33.9 33.9 15.2 33.9 33.9 33.9"/></defs><clipPath id="C"><use href="#A"/></clipPath><path d="M240.5 190.7c-2 14.1-5.7 21.5-14.7 25.7-9.1 4.2-17 3.5-17 3.5s-7.7.7-16.8-3.5-12.5-11.6-14.5-25.7c-.3-2.4-.6-4.8-.6-7.2.1-6.6 3.3-13.9 9.7-16.8 4-1.8 9.4-2.4 13.7-2.7 2.8-.2 5.7-.4 8.5-.4.9 0 1.8.1 2.7.2 7.3.6 16.1.6 22.4 4.8 1.1.8 2.2 1.6 3.2 2.7 4.7 5.2 4.4 12.8 3.4 19.4" clip-path="url(#C)" fill="#5c3915"/></g><g opacity=".3"><defs><path id="D" d="M269.8 163.5H334v56.3h-64.2z"/></defs><clipPath id="E"><use href="#D"/></clipPath><path d="M333.4 190.7c-2 14.1-5.4 21.5-14.5 25.7s-16.8 3.5-16.8 3.5-7.9.7-17-3.5-12.7-11.6-14.7-25.7c-.9-6.6-1.3-14.2 3.5-19.4 1-1.1 2-1.9 3.2-2.7 6.3-4.2 15.1-4.2 22.4-4.8.9-.1 1.8-.2 2.6-.2 2.8 0 5.7.2 8.5.4 4.3.3 9.8.9 13.7 2.7 6.3 2.9 9.6 10.2 9.7 16.8 0 2.3-.2 4.8-.6 7.2" clip-path="url(#E)" fill="#5c3915"/></g><path d="m213.3 299.4-4 14.2 10.5 76.1 36.1-37.3zm85.2.3 3.4 13.7-9.8 77.1-36.2-38.1z" fill-rule="evenodd" fill="#ededed"/><g opacity=".1"><defs><path id="F" d="M247.8 388.8h16.3v.5h-16.3z"/></defs><clipPath id="G"><use href="#F"/></clipPath><path d="M247.9 388.8h16.2v.5h-16.2z" clip-path="url(#G)" fill-rule="evenodd" fill="#010101"/></g><path d="M213.4 177.2c5.9 0 10.7 5.4 10.7 12.1s-4.8 12.1-10.7 12.1-10.7-5.4-10.7-12.1c.1-6.7 4.9-12.1 10.7-12.1m86.6 0c5.9 0 10.7 5.4 10.7 12.1s-4.8 12.1-10.7 12.1-10.7-5.4-10.7-12.1c.1-6.7 4.8-12.1 10.7-12.1" fill="#342214"/><path d="M234.7 253.7c3.8 8.4 12.2 14.2 22 14.2s18.2-5.8 22-14.2z" fill="#fff"/><path d="M142.9 456.5l2 1.2V441l-2 15.5m224 1.4l2.1-1.3-2-15.5-.1 16.8" fill="#200d45"/><path d="m264.1 388.8 10.8-16.4-18.9-20-19.3 20 11.3 16.4-14.1 98.6c7.3.7 14.7 1.1 22.2 1.1s14.9-.4 22.2-1.1z"/></svg>