<svg xmlns="http://www.w3.org/2000/svg" viewBox="0 0 58 58" xmlns:v="https://vecta.io/nano"><path d="M46.5 4v4h-7V4h-24v4h-7V4h-8v11h54V4z" fill="#f05565"/><path d="M8.5 15h-8v43h54V15h-8-7-24z" fill="#efebde"/><path d="M37.5 22h-2-7-2-7-2-9v9 2 7 2 9h9 2 7 2 7 2 9v-9-2-7-2-9h-9zm-9 2h7v7h-7v-7zm7 16h-7v-7h7v7zm-16-7h7v7h-7v-7zm0-9h7v7h-7v-7zm-9 0h7v7h-7v-7zm0 9h7v7h-7v-7zm7 16h-7v-7h7v7zm9 0h-7v-7h7v7zm9 0h-7v-7h7v7zm9 0h-7v-7h7v7zm0-9h-7v-7h7v7zm-7-9v-7h7v7h-7z" fill="#d5d0bb"/><path d="M8.5 0h7v8h-7zm31 0h7v8h-7z" fill="#36495e"/><path d="M19.5 33h7v7h-7z" fill="#7f6e5d"/><circle cx="45.5" cy="45" r="12" fill="#26b999"/><path d="M52.071 39.179a1 1 0 0 0-1.392.25l-5.596 8.04-3.949-3.242a1 1 0 0 0-1.407.139 1 1 0 0 0 .139 1.407l4.786 3.929c.18.147.404.227.634.227a1.06 1.06 0 0 0 .137-.009c.276-.039.524-.19.684-.419l6.214-8.929a1 1 0 0 0-.25-1.393z" fill="#fff"/></svg>