<?xml version="1.0" encoding="utf-8"?>
<svg height="32" viewBox="0 0 48 48" width="32" xmlns="http://www.w3.org/2000/svg">
    <path d="M42,41H28V16h10c2.199,0,4,1.801,4,4V41z" fill="#1e88e5"/>
    <path d="M28,41h14v2H28V41z" fill="#1976d2"/>
    <path d="M34 21h4v4h-4V21zM34 28h4v4h-4V28zM34 35h4v4h-4V35z" fill="#0d47a1"/>
    <g>
        <path d="M9 5H29V9H9z" fill="#64b5f6"/>
        <path d="M32,41H6V10c0-1.1,0.9-2,2-2h22c1.1,0,2,0.9,2,2V41z" fill="#90caf9"/>
        <path d="M6,41h26v2H6V41z" fill="#64b5f6"/>
        <path d="M17 33h4v6h-4V33zM10 33h4v6h-4V33zM24 33h4v6h-4V33zM17 19h4v4h-4V19zM10 19h4v4h-4V19zM24 19h4v4h-4V19zM17 26h4v4h-4V26zM10 26h4v4h-4V26zM24 26h4v4h-4V26zM17 12h4v4h-4V12zM10 12h4v4h-4V12zM24 12h4v4h-4V12z"
              fill="#1565c0"/>
    </g>
</svg>
