<svg width="50" height="50" viewBox="0 0 50 50" fill="none" xmlns="http://www.w3.org/2000/svg">
<path fill-rule="evenodd" clip-rule="evenodd" d="M38 46C42.4183 46 46 42.4183 46 38L46 8L12 8C9.79086 8 8 9.79086 8 12L8 46L38 46ZM30 19C30 22.3137 27.3137 25 24 25C20.6863 25 18 22.3137 18 19C18 15.6863 20.6863 13 24 13C27.3137 13 30 15.6863 30 19ZM34 28H24C19.0294 28 15 32.0294 15 37H25C29.9706 37 34 32.9706 34 28Z" fill="#FC787D"/>
<path fill-rule="evenodd" clip-rule="evenodd" d="M38 46C42.4183 46 46 42.4183 46 38L46 8L12 8C9.79086 8 8 9.79086 8 12L8 46L38 46ZM30 19C30 22.3137 27.3137 25 24 25C20.6863 25 18 22.3137 18 19C18 15.6863 20.6863 13 24 13C27.3137 13 30 15.6863 30 19ZM34 28H24C19.0294 28 15 32.0294 15 37H25C29.9706 37 34 32.9706 34 28Z" fill="url(#paint0_linear_3358_14104)" fill-opacity="0.2"/>
<path fill-rule="evenodd" clip-rule="evenodd" d="M38 42C40.2091 42 42 40.2091 42 38L42 4L12 4C7.58173 4 4 7.58172 4 12L4 42L38 42ZM30 19C30 22.3137 27.3137 25 24 25C20.6863 25 18 22.3137 18 19C18 15.6863 20.6863 13 24 13C27.3137 13 30 15.6863 30 19ZM34 28H24C19.0294 28 15 32.0294 15 37H25C29.9706 37 34 32.9706 34 28Z" fill="#1BB6F9"/>
<path fill-rule="evenodd" clip-rule="evenodd" d="M38 42C40.2091 42 42 40.2091 42 38L42 4L12 4C7.58173 4 4 7.58172 4 12L4 42L38 42ZM30 19C30 22.3137 27.3137 25 24 25C20.6863 25 18 22.3137 18 19C18 15.6863 20.6863 13 24 13C27.3137 13 30 15.6863 30 19ZM34 28H24C19.0294 28 15 32.0294 15 37H25C29.9706 37 34 32.9706 34 28Z" fill="url(#paint1_linear_3358_14104)" fill-opacity="0.2"/>
<path fill-rule="evenodd" clip-rule="evenodd" d="M42 38C42 40.2091 40.2091 42 38 42L8 42L8 12C8 9.79086 9.79086 8 12 8L42 8L42 38ZM30 19C30 22.3137 27.3137 25 24 25C20.6863 25 18 22.3137 18 19C18 15.6863 20.6863 13 24 13C27.3137 13 30 15.6863 30 19ZM34 28H24C19.0294 28 15 32.0294 15 37H25C29.9706 37 34 32.9706 34 28Z" fill="#1B567A"/>
<path fill-rule="evenodd" clip-rule="evenodd" d="M42 38C42 40.2091 40.2091 42 38 42L8 42L8 12C8 9.79086 9.79086 8 12 8L42 8L42 38ZM30 19C30 22.3137 27.3137 25 24 25C20.6863 25 18 22.3137 18 19C18 15.6863 20.6863 13 24 13C27.3137 13 30 15.6863 30 19ZM34 28H24C19.0294 28 15 32.0294 15 37H25C29.9706 37 34 32.9706 34 28Z" fill="url(#paint2_linear_3358_14104)" fill-opacity="0.2"/>
<defs>
<linearGradient id="paint0_linear_3358_14104" x1="8" y1="8" x2="52.7059" y2="19.1765" gradientUnits="userSpaceOnUse">
<stop stop-color="white"/>
<stop offset="1" stop-color="white" stop-opacity="0"/>
</linearGradient>
<linearGradient id="paint1_linear_3358_14104" x1="4" y1="4" x2="48.7059" y2="15.1765" gradientUnits="userSpaceOnUse">
<stop stop-color="white"/>
<stop offset="1" stop-color="white" stop-opacity="0"/>
</linearGradient>
<linearGradient id="paint2_linear_3358_14104" x1="8" y1="8" x2="48" y2="18" gradientUnits="userSpaceOnUse">
<stop stop-color="white"/>
<stop offset="1" stop-color="white" stop-opacity="0"/>
</linearGradient>
</defs>
</svg>
