<svg fill="none" height="50" viewBox="0 0 50 50" width="50" xmlns="http://www.w3.org/2000/svg">
    <path
        d="M28 16C28 21.5228 23.5228 26 18 26C12.4772 26 8 21.5228 8 16C8 10.4772 12.4772 6 18 6C23.5228 6 28 10.4772 28 16Z"
        fill="#00CEB3"/>
    <path
        d="M28 16C28 21.5228 23.5228 26 18 26C12.4772 26 8 21.5228 8 16C8 10.4772 12.4772 6 18 6C23.5228 6 28 10.4772 28 16Z"
        fill="url(#paint0_linear_3358_13595)" fill-opacity="0.2"/>
    <path
        d="M43 24C43 26.7614 40.7614 29 38 29C35.2386 29 33 26.7614 33 24C33 21.2386 35.2386 19 38 19C40.7614 19 43 21.2386 43 24Z"
        fill="#003458"/>
    <path
        d="M43 24C43 26.7614 40.7614 29 38 29C35.2386 29 33 26.7614 33 24C33 21.2386 35.2386 19 38 19C40.7614 19 43 21.2386 43 24Z"
        fill="url(#paint1_linear_3358_13595)" fill-opacity="0.3"/>
    <path d="M16 31H42C44.2091 31 46 32.7909 46 35V40C46 42.2091 44.2091 44 42 44H16V31Z" fill="#003458"/>
    <path d="M16 31H42C44.2091 31 46 32.7909 46 35V40C46 42.2091 44.2091 44 42 44H16V31Z"
          fill="url(#paint2_linear_3358_13595)" fill-opacity="0.3"/>
    <path d="M4 31H20C27.1797 31 33 36.8203 33 44H17C9.8203 44 4 38.1797 4 31Z" fill="#00CEB3"/>
    <path d="M4 31H20C27.1797 31 33 36.8203 33 44H17C9.8203 44 4 38.1797 4 31Z" fill="url(#paint3_linear_3358_13595)"
          fill-opacity="0.2"/>
    <path
        d="M23.5489 12.1284L22.4253 11L16.8928 16.5556L13.5742 13.2212L12.4509 14.3499C11.8497 14.954 11.8497 15.9334 12.4509 16.5375L16.8921 21L23.5489 14.3154C24.1504 13.7114 24.1504 12.7323 23.5489 12.1284Z"
        fill="white"/>
    <defs>
        <linearGradient gradientUnits="userSpaceOnUse" id="paint0_linear_3358_13595" x1="8" x2="31.5294" y1="6"
                        y2="11.8824">
            <stop stop-color="white"/>
            <stop offset="1" stop-color="white" stop-opacity="0"/>
        </linearGradient>
        <linearGradient gradientUnits="userSpaceOnUse" id="paint1_linear_3358_13595" x1="33" x2="44.7647" y1="19"
                        y2="21.9412">
            <stop stop-color="white"/>
            <stop offset="1" stop-color="white" stop-opacity="0"/>
        </linearGradient>
        <linearGradient gradientUnits="userSpaceOnUse" id="paint2_linear_3358_13595" x1="16" x2="44.1354" y1="31"
                        y2="47.232">
            <stop stop-color="white"/>
            <stop offset="1" stop-color="white" stop-opacity="0"/>
        </linearGradient>
        <linearGradient gradientUnits="userSpaceOnUse" id="paint3_linear_3358_13595" x1="4" x2="31.6502" y1="31"
                        y2="46.4203">
            <stop stop-color="white"/>
            <stop offset="1" stop-color="white" stop-opacity="0"/>
        </linearGradient>
    </defs>
</svg>
