<svg height="480" viewBox="0 0 48 48" width="480" xmlns="http://www.w3.org/2000/svg">
    <path d="M44 24c0 11.047-8.953 20-20 20S4 35.047 4 24 12.953 4 24 4s20 8.953 20 20" fill="#7cb342"/>
    <path d="M9.924 9.793A19.95 19.95 0 0 1 24 4v20z" fill="#dcedc8"/>
    <path d="M40 24c0 8.836-7.164 16-16 16S8 32.836 8 24 15.164 8 24 8s16 7.164 16 16" fill="#fff"/>
    <path d="M22.08 24.562a1.997 1.997 0 0 0 3.835-1.124 2 2 0 0 0-2.478-1.358 2.003 2.003 0 0 0-1.357 2.482"/>
    <path d="M9.924 9.793 25.16 22.375l-2.749 2.838z"/>
    <path d="M23 23.996a1 1 0 1 0 1.998.002A1 1 0 0 0 23 23.996" fill="#8bc34a"/>
    <path d="M19.214 4.6A4.8 4.8 0 0 0 19 6c0 2.76 2.24 5 5 5s5-2.24 5-5c0-.489-.079-.956-.214-1.4C27.25 4.222 25.653 4 24 4s-3.25.222-4.786.6"
          fill="#dcedc8"/>
    <path d="M27 6a3.001 3.001 0 0 1-6 0 3.001 3.001 0 0 1 6 0" fill="#33691e"/>
</svg>
