<svg fill="none" height="50" viewBox="0 0 50 50" width="50" xmlns="http://www.w3.org/2000/svg">
    <path d="M21 21V12H29V21H38V29H29V38H21V29H12V21H21Z" fill="white"/>
    <path clip-rule="evenodd" d="M12 29H4V16C4 13.7909 5.79086 12 8 12L21 12V21V29L12 29ZM12 29V25C12 23 14 21 16 21H21V29L12 29Z"
          fill="#102E7A"
          fill-rule="evenodd"/>
    <path clip-rule="evenodd" d="M12 29H4V16C4 13.7909 5.79086 12 8 12L21 12V21V29L12 29ZM12 29V25C12 23 14 21 16 21H21V29L12 29Z"
          fill="url(#paint0_linear_3358_13906)"
          fill-opacity="0.3" fill-rule="evenodd"/>
    <path clip-rule="evenodd" d="M38 21L46 21L46 34C46 36.2091 44.2091 38 42 38L29 38L29 29L29 21L38 21ZM38 21L38 25C38 27 36 29 34 29L29 29L29 21L38 21Z"
          fill="#102E7A"
          fill-rule="evenodd"/>
    <path clip-rule="evenodd" d="M38 21L46 21L46 34C46 36.2091 44.2091 38 42 38L29 38L29 29L29 21L38 21ZM38 21L38 25C38 27 36 29 34 29L29 29L29 21L38 21Z"
          fill="url(#paint1_linear_3358_13906)"
          fill-opacity="0.3" fill-rule="evenodd"/>
    <path clip-rule="evenodd" d="M21 12L21 4L34 4C36.2091 4 38 5.79086 38 8L38 21H29H21L21 12ZM21 12H25C27 12 29 14 29 16V21H21L21 12Z"
          fill="#1BB6F9"
          fill-rule="evenodd"/>
    <path clip-rule="evenodd" d="M21 12L21 4L34 4C36.2091 4 38 5.79086 38 8L38 21H29H21L21 12ZM21 12H25C27 12 29 14 29 16V21H21L21 12Z"
          fill="url(#paint2_linear_3358_13906)"
          fill-opacity="0.2" fill-rule="evenodd"/>
    <path clip-rule="evenodd" d="M29 38V46H16C13.7909 46 12 44.2091 12 42L12 29L21 29L29 29L29 38ZM29 38H25C23 38 21 36 21 34V29L29 29L29 38Z"
          fill="#1BB6F9"
          fill-rule="evenodd"/>
    <path clip-rule="evenodd" d="M29 38V46H16C13.7909 46 12 44.2091 12 42L12 29L21 29L29 29L29 38ZM29 38H25C23 38 21 36 21 34V29L29 29L29 38Z"
          fill="url(#paint3_linear_3358_13906)"
          fill-opacity="0.2" fill-rule="evenodd"/>
    <defs>
        <linearGradient gradientUnits="userSpaceOnUse" id="paint0_linear_3358_13906" x1="4" x2="24" y1="12" y2="17">
            <stop stop-color="white"/>
            <stop offset="1" stop-color="white" stop-opacity="0"/>
        </linearGradient>
        <linearGradient gradientUnits="userSpaceOnUse" id="paint1_linear_3358_13906" x1="29" x2="49" y1="21" y2="26">
            <stop stop-color="white"/>
            <stop offset="1" stop-color="white" stop-opacity="0"/>
        </linearGradient>
        <linearGradient gradientUnits="userSpaceOnUse" id="paint2_linear_3358_13906" x1="21" x2="41" y1="4" y2="9">
            <stop stop-color="white"/>
            <stop offset="1" stop-color="white" stop-opacity="0"/>
        </linearGradient>
        <linearGradient gradientUnits="userSpaceOnUse" id="paint3_linear_3358_13906" x1="12" x2="32" y1="29" y2="34">
            <stop stop-color="white"/>
            <stop offset="1" stop-color="white" stop-opacity="0"/>
        </linearGradient>
    </defs>
</svg>
