<svg height="130" version="1.2" viewBox="0 0 800 800" width="130" xmlns="http://www.w3.org/2000/svg">
    <style>.a {
        fill: #cbecf9
    }

    .b {
        fill: #fff
    }

    .c {
        fill: #c3dcf1
    }

    .d {
        fill: #b7c5d1
    }

    .e {
        fill: #c2c4c2
    }

    .f {
        fill: #2fb1ea
    }

    .g {
        fill: #e5f5fc
    }

    .h {
        fill: #1a96e2
    }

    .i {
        fill: #ffc444
    }

    .j {
        fill: #ffe76e
    }

    .k {
        fill: #b6d3eb
    }

    .l {
        fill: #d4ffd4
    }

    .m {
        fill: #ffbdbd
    }

    .n {
        fill: #bbf1ff
    }

    .o {
        fill: #fff4c5
    }</style>
    <path class="a"
          d="m487.5 229.6h89.8v360.2c0 4.9-1 9.8-2.8 14.4-1.9 4.5-4.7 8.6-8.2 12.1-3.5 3.5-7.6 6.3-12.1 8.2-4.6 1.8-9.5 2.8-14.4 2.8h-348.9c-4.9 0-9.8-1-14.3-2.8-4.6-1.9-8.7-4.7-12.2-8.2-3.5-3.5-6.3-7.6-8.1-12.1-1.9-4.6-2.9-9.5-2.9-14.4v-450c0-4.9 1-9.8 2.9-14.3 1.8-4.6 4.6-8.7 8.1-12.2 3.5-3.5 7.6-6.2 12.2-8.1 4.5-1.9 9.4-2.9 14.3-2.9h259.4v89.8c0 4.9 0.9 9.8 2.8 14.3 1.9 4.5 4.6 8.7 8.1 12.1 3.4 3.5 7.5 6.3 12 8.2 4.6 1.9 9.4 2.9 14.3 2.9z"/>
    <path class="b"
          d="m487.5 229.6h89.8v320.9c0 5-1 9.8-2.8 14.4-1.9 4.5-4.7 8.7-8.2 12.1-3.5 3.5-7.6 6.3-12.1 8.2-4.6 1.9-9.5 2.8-14.4 2.8h-348.9c-4.9 0-9.8-0.9-14.3-2.8-4.6-1.9-8.7-4.7-12.2-8.2-3.5-3.4-6.3-7.6-8.1-12.1-1.9-4.6-2.9-9.4-2.9-14.4v-410.7c0-4.9 1-9.8 2.9-14.3 1.8-4.6 4.6-8.7 8.1-12.2 3.5-3.5 7.6-6.2 12.2-8.1 4.5-1.9 9.4-2.9 14.3-2.9h259.4v89.8c0 4.9 0.9 9.8 2.8 14.3 1.9 4.5 4.6 8.7 8.1 12.1 3.4 3.5 7.5 6.3 12 8.2 4.6 1.9 9.4 2.9 14.3 2.9z"/>
    <path class="c" d="m508.6 269.6c0 12.1-9.8 22-22 22h-242.3c-12.2 0-22-9.9-22-22 0-12.2 9.8-22 22-22h242.3c12.2 0 22 9.8 22 22z"
          fill-rule="evenodd"/>
    <path class="d" d="m411.3 333.1c0 12.1-9.8 22-22 22h-145.1c-12.1 0-22-9.9-22-22 0-12.2 9.9-22 22-22h145.1c12.2 0 22 9.8 22 22z"
          fill-rule="evenodd"/>
    <path class="c" d="m375 396.6c0 12.1-9.8 22-22 22h-108.7c-12.2 0-22-9.9-22-22 0-12.2 9.8-22 22-22h108.7c12.2 0 22 9.8 22 22z"
          fill-rule="evenodd"/>
    <path class="e" d="m480.6 460.1c0 12.1-9.9 22-22 22h-214.4c-12.1 0-22-9.9-22-22 0-12.2 9.9-22 22-22h214.4c12.1 0 22 9.8 22 22z"
          fill-rule="evenodd"/>
    <path class="a"
          d="m577.5 254.4h-90c-4.9 0-9.8-1-14.4-2.9-4.5-1.9-8.6-4.6-12.1-8.1-3.5-3.5-6.3-7.6-8.1-12.2-1.9-4.5-2.9-9.4-2.9-14.3v-89.8l127.3 102.5z"/>
    <path class="f"
          d="m540 633.6h-349.1c-5.7 0-11.4-1.2-16.7-3.4-5.3-2.2-10.2-5.4-14.2-9.5-4.1-4-7.3-8.8-9.5-14.1-2.2-5.4-3.3-11-3.3-16.8v-450c0-5.7 1.1-11.4 3.3-16.7 2.2-5.3 5.4-10.2 9.5-14.2 4-4.1 8.9-7.3 14.2-9.5 5.3-2.2 11-3.3 16.7-3.3h259.4q1.2 0 2.4 0.4 1.1 0.5 2 1.4 0.9 0.9 1.4 2 0.4 1.2 0.4 2.4v89.8c0 4.1 0.8 8.2 2.4 12 1.6 3.8 3.9 7.2 6.8 10.1 2.9 2.9 6.3 5.2 10.1 6.8 3.8 1.6 7.9 2.4 12 2.4h89.8q1.2 0 2.4 0.5 1.1 0.4 2 1.3 0.9 0.9 1.4 2 0.4 1.2 0.4 2.4v360.2c0 5.8-1.1 11.5-3.3 16.8-2.2 5.3-5.4 10.1-9.5 14.2-4.1 4.1-8.9 7.3-14.3 9.5-5.3 2.2-11 3.3-16.7 3.3zm-349.1-525c-4.1 0-8.2 0.8-12 2.3-3.7 1.6-7.2 3.9-10.1 6.8-2.9 2.9-5.2 6.4-6.8 10.2-1.5 3.7-2.3 7.8-2.3 11.9v450c0 4.1 0.8 8.2 2.3 12 1.6 3.8 3.9 7.2 6.8 10.1 2.9 2.9 6.4 5.2 10.1 6.8 3.8 1.6 7.9 2.4 12 2.4h349.1c4.1 0 8.1-0.8 11.9-2.4 3.8-1.6 7.3-3.9 10.2-6.8 2.9-2.9 5.2-6.3 6.7-10.1 1.6-3.8 2.4-7.9 2.4-12v-353.9h-83.7c-5.7 0-11.4-1.2-16.7-3.4-5.4-2.2-10.2-5.4-14.2-9.4-4.1-4.1-7.3-8.9-9.5-14.2-2.2-5.3-3.3-11-3.3-16.8v-83.5z"/>
    <path class="g"
          d="m577.5 229.6h-90c-4.9 0-9.8-0.9-14.4-2.8-4.5-1.9-8.6-4.7-12.1-8.2-3.5-3.4-6.3-7.6-8.1-12.1-1.9-4.6-2.9-9.5-2.9-14.4v-89.8z"/>
    <path class="f"
          d="m577.5 235.9h-90c-5.7 0-11.4-1.2-16.7-3.4-5.4-2.2-10.2-5.4-14.2-9.4-4.1-4.1-7.3-8.9-9.5-14.2-2.2-5.3-3.4-11-3.4-16.8v-89.8c0.1-1.2 0.4-2.4 1.1-3.4 0.7-1.1 1.7-1.9 2.8-2.3 1.2-0.5 2.4-0.6 3.6-0.4 1.2 0.2 2.3 0.8 3.2 1.7l127.5 127.3c0.8 0.9 1.4 2 1.7 3.2 0.2 1.2 0.1 2.5-0.4 3.6-0.5 1.2-1.2 2.1-2.3 2.8-1 0.7-2.2 1.1-3.4 1.1zm-121.3-118.5v74.7c0 4.1 0.9 8.2 2.4 12 1.6 3.8 3.9 7.2 6.8 10.1 2.9 2.9 6.3 5.2 10.1 6.8 3.8 1.6 7.9 2.4 12 2.4h75z"/>
    <path class="f"
          d="m620.8 698.4l-129.6-129.6c-3.5-3.6-5.5-8.3-5.5-13.3 0-5 2-9.8 5.5-13.3 3.5-3.5 8.3-5.5 13.3-5.5 4.9 0 9.7 2 13.2 5.5l129.7 129.7c3.5 3.5 5.5 8.3 5.5 13.2 0 5-2 9.8-5.5 13.3-3.5 3.5-8.3 5.5-13.3 5.5-5 0-9.7-2-13.2-5.5z"/>
    <path class="h"
          d="m539 563.6l-21.3-21.4c-3.5-3.5-8.3-5.4-13.3-5.4-5 0-9.7 1.9-13.2 5.5-3.6 3.5-5.5 8.2-5.5 13.2 0 5 1.9 9.8 5.5 13.3l21.3 21.3q3.7-2.9 7.2-6.1 3.5-3.1 6.8-6.4 3.3-3.3 6.4-6.8 3.2-3.6 6.1-7.2z"/>
    <path class="i" d="m411.7 594c-72.6 0-131.3-58.7-131.3-131.2 0-72.6 58.7-131.3 131.3-131.3 72.6 0 131.2 58.7 131.2 131.3 0 72.5-58.6 131.2-131.2 131.2z"
          fill-rule="evenodd"/>
    <path class="j" d="m411.7 573.3c-66.9 0-120.9-54-120.9-120.9 0-66.9 54-120.9 120.9-120.9 66.8 0 120.9 54 120.9 120.9 0 66.9-54.1 120.9-120.9 120.9z"
          fill-rule="evenodd"/>
    <path class="f"
          d="m411.7 600.3c-55.6 0-105.8-33.6-127-84.9-21.3-51.4-9.6-110.6 29.8-149.9 39.3-39.3 98.4-51.1 149.8-29.8 51.4 21.3 84.9 71.4 84.9 127 0 18.1-3.6 36-10.5 52.7-6.9 16.7-17 31.8-29.8 44.6-12.8 12.7-27.9 22.9-44.6 29.8-16.7 6.9-34.6 10.5-52.6 10.5zm0-262.5c-50.6 0-96.1 30.4-115.5 77.1-19.3 46.7-8.7 100.5 27.1 136.2 35.7 35.8 89.5 46.5 136.2 27.1 46.7-19.3 77.2-64.9 77.2-115.4 0-16.5-3.2-32.7-9.5-47.9-6.3-15.2-15.5-28.9-27.1-40.5-11.6-11.6-25.4-20.9-40.6-27.1-15.1-6.3-31.4-9.5-47.8-9.5z"/>
    <path class="i" d="m411.7 557.4c-56.8 0-102.7-45.9-102.7-102.7 0-56.8 45.9-102.7 102.7-102.7 56.8 0 102.7 45.9 102.7 102.7 0 56.8-45.9 102.7-102.7 102.7z"
          fill-rule="evenodd"/>
    <path class="b" d="m411.7 557.4c-52.4 0-94.7-42.3-94.7-94.6 0-52.4 42.3-94.7 94.7-94.7 52.3 0 94.6 42.3 94.6 94.7 0 52.3-42.3 94.6-94.6 94.6z"
          fill-rule="evenodd"/>
    <path class="k"
          d="m378.3 398q0-2.8-0.5-5.6-0.6-2.8-1.6-5.4-1.1-2.6-2.6-4.9-1.5-2.4-3.4-4.4c-5.2 2.5-10.2 5.6-14.9 9-4.6 3.5-8.9 7.4-12.9 11.6-3.9 4.2-7.5 8.8-10.6 13.7-3.1 4.9-5.8 10.1-7.9 15.5h25c3.8 0 7.7-0.8 11.2-2.3 3.6-1.5 6.9-3.7 9.6-6.4 2.7-2.7 4.9-6 6.4-9.6 1.4-3.5 2.2-7.4 2.2-11.2z"/>
    <path class="e"
          d="m506.3 458.3q-1.8-1.2-3.8-2-1.9-0.9-3.9-1.6-2.1-0.6-4.2-0.9-2.1-0.3-4.2-0.3h-172.7c-0.3 3.2-0.5 6.3-0.5 9.2q0 6.6 0.9 13.1 1 6.5 2.8 12.8 1.8 6.3 4.4 12.3 2.7 6 6.1 11.6h159q1.1 0 2.1 0 3.5-5.6 6.1-11.6 2.7-5.9 4.4-12.2 1.8-6.3 2.7-12.8 0.9-6.5 0.9-13.1c-0.2-1.6-0.2-3-0.2-4.5z"/>
    <path class="f"
          d="m411.7 563.7c-40.8 0-77.7-24.6-93.3-62.3-15.7-37.7-7-81.1 21.8-110 28.9-28.8 72.3-37.5 110-21.9 37.7 15.6 62.3 52.4 62.3 93.3 0 13.2-2.6 26.3-7.7 38.5-5.1 12.3-12.5 23.4-21.8 32.7-9.4 9.4-20.5 16.8-32.7 21.9-12.3 5.1-25.4 7.7-38.6 7.8zm0-189.4c-35.8 0-68 21.5-81.8 54.6-13.7 33-6.1 71 19.1 96.3 25.3 25.3 63.4 32.9 96.4 19.2 33.1-13.6 54.6-45.9 54.6-81.7 0-11.5-2.3-23-6.7-33.7-4.5-10.8-11-20.5-19.2-28.7-8.2-8.2-17.9-14.7-28.6-19.2-10.7-4.4-22.2-6.7-33.8-6.8z"/>
    <path class="l" d="m606.3 153.1c-8.7 0-15.7-7-15.7-15.6 0-8.6 7-15.6 15.7-15.6 8.6 0 15.6 7 15.6 15.6 0 8.6-7 15.6-15.6 15.6z"
          fill-rule="evenodd"/>
    <path class="l" d="m121.9 456.3c-6.9-0.1-12.5-5.6-12.5-12.6 0-6.9 5.6-12.5 12.5-12.5 6.9 0 12.5 5.6 12.5 12.5 0 7-5.6 12.5-12.5 12.5z"
          fill-rule="evenodd"/>
    <path class="l" d="m103.1 156.3c-5.2-0.1-9.3-4.2-9.3-9.4 0-5.2 4.1-9.4 9.3-9.4 5.2 0 9.4 4.2 9.4 9.4 0 5.2-4.2 9.3-9.4 9.3z"
          fill-rule="evenodd"/>
    <path class="l" d="m631.3 340.6c-3.5 0-6.3-2.8-6.3-6.2 0-3.5 2.8-6.3 6.3-6.3 3.4 0 6.2 2.8 6.2 6.3 0 3.4-2.8 6.2-6.2 6.2z"
          fill-rule="evenodd"/>
    <path class="l" d="m715.6 712.5c-1.7 0-3.1-1.4-3.1-3.1 0-1.8 1.4-3.1 3.1-3.1 1.8 0 3.1 1.3 3.1 3.1 0 1.7-1.3 3.1-3.1 3.1z"
          fill-rule="evenodd"/>
    <path class="m" d="m671.9 793.8c-8.7 0-15.6-7-15.6-15.7 0-8.6 6.9-15.6 15.6-15.6 8.6 0 15.6 7 15.6 15.6 0 8.7-7 15.7-15.6 15.7z"
          fill-rule="evenodd"/>
    <path class="m" d="m646.9 571.9c-6.9 0-12.5-5.6-12.5-12.5 0-6.9 5.6-12.5 12.5-12.5 6.9 0 12.5 5.6 12.5 12.5 0 6.9-5.6 12.5-12.5 12.5z"
          fill-rule="evenodd"/>
    <path class="m" d="m212.5 750c-5.2 0-9.4-4.2-9.4-9.4 0-5.2 4.2-9.3 9.4-9.3 5.2 0 9.4 4.1 9.4 9.3 0 5.2-4.2 9.4-9.4 9.4z"
          fill-rule="evenodd"/>
    <path class="m" d="m643.8 62.5c-3.5 0-6.3-2.8-6.3-6.3 0-3.4 2.8-6.2 6.3-6.2 3.4 0 6.2 2.8 6.2 6.3 0 3.4-2.8 6.2-6.2 6.2z"
          fill-rule="evenodd"/>
    <path class="m" d="m343.8 62.5c-1.8 0-3.2-1.4-3.2-3.1 0-1.8 1.4-3.1 3.1-3.1 1.8 0 3.2 1.3 3.2 3.1 0 1.7-1.4 3.1-3.2 3.1z"
          fill-rule="evenodd"/>
    <path class="n" d="m87.5 343.8c-8.6-0.1-15.6-7-15.6-15.7 0-8.6 7-15.6 15.6-15.6 8.6 0 15.6 7 15.6 15.6 0 8.7-7 15.6-15.6 15.6z"
          fill-rule="evenodd"/>
    <path class="n" d="m368.8 775c-7 0-12.6-5.6-12.6-12.5 0-6.9 5.6-12.5 12.5-12.5 7 0 12.5 5.6 12.5 12.5 0 6.9-5.5 12.5-12.5 12.5z"
          fill-rule="evenodd"/>
    <path class="n" d="m671.9 400c-5.2 0-9.4-4.2-9.4-9.4 0-5.2 4.2-9.3 9.4-9.3 5.2 0 9.4 4.1 9.4 9.3 0 5.2-4.2 9.4-9.4 9.4z"
          fill-rule="evenodd"/>
    <path class="n" d="m625 256.3c-3.5-0.1-6.3-2.8-6.3-6.3 0-3.5 2.8-6.3 6.3-6.3 3.5 0 6.3 2.8 6.3 6.3 0 3.5-2.8 6.2-6.3 6.2z"
          fill-rule="evenodd"/>
    <path class="n" d="m96.9 668.8c-1.8 0-3.2-1.4-3.2-3.2 0-1.7 1.4-3.1 3.2-3.1 1.7 0 3.1 1.4 3.1 3.1 0 1.8-1.4 3.2-3.1 3.2z"
          fill-rule="evenodd"/>
    <path class="o" d="m178.1 37.5c-8.6 0-15.6-7-15.6-15.6 0-8.7 7-15.7 15.6-15.7 8.7 0 15.7 7 15.7 15.7 0 8.6-7 15.6-15.7 15.6z"
          fill-rule="evenodd"/>
    <path class="o" d="m531.3 78.1c-7 0-12.5-5.6-12.5-12.5 0-6.9 5.5-12.5 12.5-12.5 6.9 0 12.5 5.6 12.5 12.5 0 6.9-5.6 12.5-12.5 12.5z"
          fill-rule="evenodd"/>
    <path class="o" d="m103.1 559.4c-5.2 0-9.3-4.2-9.3-9.4 0-5.2 4.1-9.4 9.3-9.4 5.2 0 9.4 4.2 9.4 9.4 0 5.2-4.2 9.4-9.4 9.4z"
          fill-rule="evenodd"/>
    <path class="o" d="m137.5 256.3c-3.5-0.1-6.3-2.8-6.3-6.3 0-3.5 2.8-6.3 6.3-6.3 3.5 0 6.3 2.8 6.3 6.3 0 3.5-2.8 6.2-6.3 6.2z"
          fill-rule="evenodd"/>
    <path class="o" d="m725 496.9c-1.7 0-3.1-1.4-3.1-3.1 0-1.8 1.4-3.2 3.1-3.2 1.7 0 3.1 1.4 3.1 3.2 0 1.7-1.4 3.1-3.1 3.1z"
          fill-rule="evenodd"/>
</svg>
