<svg height="32" width="32" xmlns="http://www.w3.org/2000/svg">
    <g fill="none">
        <use fill="url(#A)" href="#G"/>
        <use fill="url(#B)" href="#G"/>
        <use fill="url(#E)" fill-opacity=".75" href="#G"/>
        <use fill="url(#F)" fill-opacity=".75" href="#G"/>
        <path d="M16 16a7 7 0 1 0 0-14 7 7 0 0 0 0 14" fill="url(#C)"/>
        <path d="M25 25.9a5 5 0 1 0-3.703-3.197l-5.15 5.15a.5.5 0 0 0-.147.354V30.5a.5.5 0 0 0 .5.5h4a.5.5 0 0 0 .5-.5v-1a.5.5 0 0 1 .5-.5h1a.5.5 0 0 0 .5-.5v-1a.5.5 0 0 1 .5-.5h1a.5.5 0 0 0 .5-.5zm3.121-5.607a1 1 0 1 1-1.414-1.414 1 1 0 0 1 1.414 1.414" fill="url(#D)"
              fill-rule="evenodd"/>
        <defs>
            <linearGradient href="#H" id="A" x1="9.707" x2="13.584" y1="19.595" y2="31.977">
                <stop offset=".125" stop-color="#9c6cfe"/>
                <stop offset="1" stop-color="#7a41dc"/>
            </linearGradient>
            <linearGradient href="#H" id="B" x1="16" x2="21.429" y1="16.571" y2="36.857">
                <stop stop-color="#885edb" stop-opacity="0"/>
                <stop offset="1" stop-color="#e362f8"/>
            </linearGradient>
            <linearGradient href="#H" id="C" x1="12.329" x2="19.464" y1="3.861" y2="15.254">
                <stop offset=".125" stop-color="#9c6cfe"/>
                <stop offset="1" stop-color="#7a41dc"/>
            </linearGradient>
            <linearGradient href="#H" id="D" x1="31.021" x2="16.774" y1="30.994" y2="19.339">
                <stop stop-color="#ff6f47"/>
                <stop offset="1" stop-color="#ffcd0f"/>
            </linearGradient>
            <radialGradient cx="0" cy="0" gradientTransform="matrix(9.6823,-16.28579,8.42641,5.0097,20.724,34.286)" href="#H"
                            id="E" r="1">
                <stop stop-color="#0a1852" stop-opacity=".75"/>
                <stop offset="1" stop-color="#0a1852" stop-opacity="0"/>
            </radialGradient>
            <radialGradient cx="0" cy="0" gradientTransform="matrix(0,-5.5,7.25,0,26,21.5)" href="#H" id="F" r="1">
                <stop stop-color="#0a1852" stop-opacity=".75"/>
                <stop offset="1" stop-color="#0a1852" stop-opacity="0"/>
            </radialGradient>
            <path d="M25.125 18.056v4.166l-8.095 7.75q-.51.027-1.03.028c-3.198 0-6.14-.823-8.315-2.207C5.523 26.417 4 24.393 4 22v-.5A3.5 3.5 0 0 1 7.5 18h17q.32.001.625.056"
                  id="G"/>
        </defs>
    </g>
    <defs>
        <linearGradient gradientUnits="userSpaceOnUse" id="H"/>
    </defs>
</svg>
